<?xml version="1.0" encoding="utf-8"?>
<!-- Generator: Adobe Illustrator 23.0.2, SVG Export Plug-In . SVG Version: 6.00 Build 0)  -->
<svg version="1.1" id="Layer_1" xmlns="http://www.w3.org/2000/svg" xmlns:xlink="http://www.w3.org/1999/xlink" x="0px" y="0px"
	 viewBox="0 0 158.5 67.9" style="enable-background:new 0 0 158.5 67.9;" xml:space="preserve">
<style type="text/css">
	.st0{fill:#FFFFFF;}
</style>
<title>Asset 3</title>
<g>
	<g id="Layer_1-2">
		<path d="M38.3,46.8v-1h-0.2L38,46.3c-0.3,0.7-0.6,1.3-0.8,2c-0.3,0.9-1,1.3-1.5,2c-0.5,0.5-0.5,1.2,0,1.7c0,0,0.1,0.1,0.1,0.1
			c1,0.9,2.1,1.7,3.1,2.6c0.2,0.2,0.3,0.5,0.3,0.7c-0.2,0.5-0.1,1.2,0.3,1.5c0.6,0.6,0.7,1.5,0.4,2.3c-0.3,0.9-0.5,1.9-0.8,2.9
			c0,0.1,0,0.2,0,0.3c-0.1,0.2-0.3,0.3-0.4,0.4c-0.1-0.2-0.3-0.4-0.2-0.5c0.1-0.7,0.3-1.3,0.5-2s0.4-1.2,0.5-1.8
			c0-0.3,0-0.5-0.2-0.8c-0.1-0.2-0.3-0.4-0.5-0.5c-0.5-0.3-0.7-0.9-0.4-1.4c0.2-0.4,0-0.7-0.3-1C37,53.8,36,53,35,52.1
			c-0.4-0.3-0.8-0.5-1,0.2c-0.1,0.2-0.3,0.2-0.5,0.4c0.8,0.3,0.8,0.9,0.7,1.5c-0.2,1.3-0.5,2.6-0.7,4c-0.2,1.1-0.3,2.2-0.4,3.3
			c-0.1,0.6-0.2,1.2-0.3,1.7c0,0.1-0.2,0.2-0.3,0.3c-0.1-0.1-0.3-0.2-0.3-0.3c0.1-0.6,0.2-1.3,0.3-1.9c0.1-1,0.2-2,0.3-3
			c0.1-0.6,0.3-1.2,0.4-1.7c0.1-0.8,0.2-1.7,0.2-2.5c0-0.2-0.1-0.3-0.3-0.3c-0.2,0-0.3,0-0.5,0.1c-0.4,0.3-0.6,0.8-0.5,1.3
			c0.1,0.4,0,0.5-0.5,0.6c-0.5,0.2-0.9,0.2-1.4,0.3c-0.5,0-1,0.3-1.7,0.2c-0.6,0-1.1,0.1-1.7,0.2c0,0-0.1,0-0.1,0
			c-0.9-0.5-1.9,0-2.8,0.1c0-0.1-0.1-0.2-0.1-0.3s-0.1-0.3-0.2-0.3c-0.1,0-0.3,0-0.3,0.2c0,0.1,0,0.3,0.1,0.4
			c0.8,0.9,1.6,1.8,2.5,2.7c1.2,1.2,2.5,2.4,3.7,3.6c0.2,0.1,0.3,0.3,0.4,0.5c0,0.2,0,0.4,0,0.6c-0.3-0.1-0.6,0-0.7-0.2
			c-0.9-0.9-1.7-1.8-2.5-2.7c-2-2.1-4-4.1-6-6.2c-0.8-0.8-1.7-1.6-2.5-2.4c-0.1-0.1-0.3-0.1-0.4-0.1s-0.3-0.1-0.4-0.2
			c-0.4-1-1.2-1.4-2-1.9c-0.1-0.1-0.2-0.3-0.2-0.5c0-0.3-0.2-0.7-0.5-0.8c-0.5-0.2-0.6-0.7-0.7-1.2s-0.1-0.7-0.6-0.8
			c-0.1,0-0.2-0.1-0.2-0.1L12.2,45c-0.1-0.3-0.3-0.5-0.5-0.8h-0.2c-0.2,0.5-0.4,1-0.6,1.5c-0.4,1.1-0.7,2.3-1.1,3.4
			c-0.1,0.2-0.2,0.4-0.4,0.5c-0.8,0.4-1.6,1-2.1,1.8C6.2,53,5,54.6,3.8,56c-0.4,0.4-0.8,0.8-1.2,1.1c-0.4,0.3-0.7,0.2-0.9-0.2
			l2.4-2.9c0.9-1,1.8-2.1,2.6-3.2c0.3-0.4,0.5-0.8,0.9-1.2c0.2-0.3,0.4-0.5,0.7-0.6c0.6-0.1,1-0.6,1.2-1.2l1.2-4.1
			c0.1-0.4-0.4-1.4-0.8-1.5c-0.8,0-1.1-0.6-1.4-1.2c-0.4-1-1.3-1.8-2.4-2c-0.9-0.3-1.5-1.1-1.7-2c-0.2-1-0.7-2-1.4-2.8
			c-0.6-0.6-0.8-1.4-0.8-2.3c0.1-0.9-0.2-1.7-0.9-2.3c-0.4-0.5-0.6-1.1-0.4-1.7c0.1-0.3,0-0.6-0.1-0.9c-0.4-0.6-0.6-1.4-0.4-2.1
			c0.1-0.5,0-0.9-0.2-1.4c-0.5-0.7-0.3-1.6,0.3-2.1c0.4-0.4,0.2-0.8,0.1-1.1c-0.2-0.4-0.1-0.9,0.1-1.2c0.1-0.2,0.1-0.5,0.1-0.7
			s0-0.6,0-0.9C1,17.3,1,16.9,1,16.5c-0.2-0.7,0.3-1.5,1.1-1.7c0.1,0,0.1,0,0.2,0c0.2,0,0.3-0.2,0.4-0.4c0-0.1,0-0.1,0-0.2
			c-0.4-1.5,0.6-2.4,1.4-3.4c0.1-0.1,0.1-0.3,0.1-0.5C4.1,9.8,4.3,9.6,4.8,9.7s0.6-0.1,0.8-0.6c0.3-0.6,0.7-1.2,1.1-1.8
			c0,0,0.1-0.1,0.1-0.1c1-0.1,1.4-1,2.3-1.3c0.1-0.1,0.3-0.2,0.4-0.3c0.5-0.8,1.4-1.2,2.3-1.1c0.2,0,0.4-0.1,0.6-0.2
			c0.6-0.5,1.2-1,1.8-1.6C14.7,2,15,1.9,15.7,2.3c0.3,0.2,0.5,0.2,0.8-0.1c0.4-0.5,0.9-1,1.4-1.4c0.4-0.4,1.1-0.5,1.6-0.1
			c0.7,0.4,1.7,0.4,2.4-0.1c0.3-0.2,0.8-0.3,1.2-0.3c0.8,0.2,1.8,0,2.5,0.5c0.3,0.2,1.3-0.1,1.5-0.4c0.4-0.5,0.7-0.6,1.3-0.1
			c0.1,0.1,0.2,0.2,0.4,0.3c0.1,0.1,0.1,0.2,0.2,0.2c0.8,0.3,1.5,0.5,2.3,0.7c0.5,0,1,0,1.5-0.1c0.6,0,1.1,0.4,1.3,1
			c0.3,0.5,0.6,0.7,1.2,0.4c0.2-0.1,0.4-0.2,0.6-0.1c0.6,0.1,1.1,0.4,1.8,0.2c0.1,0,0.4,0.2,0.5,0.3c0.3,0.3,0.7,0.6,1.1,0.8
			c1,0.5,1.7,1.3,2,2.4c0,0.2,0.1,0.3,0.2,0.4c0.7,0.4,1.4,0.8,2.1,1.1c0.7,0.3,1.4,0.8,1.5,1.6c0.1,0.8,0.4,1.6,0.9,2.2
			c0.5,0.7,0.8,1.5,1,2.3c0.2,0.4,0.4,0.8,0.7,1.1c0.1,0.1,0.2,0.2,0.3,0.3c0.4,0.9,0.9,1.7,1.3,2.6c0.1,0.2,0,0.4-0.1,0.5
			c-0.3,0.2-0.2,0.4-0.1,0.7c0.1,0.4,0.3,0.8,0.3,1.2c0.1,0.3,0.2,0.5,0.3,0.8c0.2,0.4,0.3,0.9,0.2,1.4c-0.1,0.6-0.1,1.2,0,1.8
			c0,0.2,0.1,0.5,0.1,0.7c-0.1,1-0.2,2.1-0.2,3.1c0,0.4-0.2,0.9-0.5,1.2c-0.3,0.4-0.5,0.9-0.5,1.4c0.3,0.9,0.1,1.9-0.6,2.6
			c-0.2,0.3-0.3,0.6-0.4,0.9c-0.1,0.3-0.3,0.6-0.5,0.8c-0.3,0.1-0.4,0.5-0.3,0.8c0.2,0.4,0.1,0.9-0.3,1.3c-0.1,0.1-0.1,0.1-0.2,0.2
			c-0.4,1.3-1.2,2.4-2.2,3.2c-0.6,0.5-1,1.2-1.8,1.4c-0.1,0-0.1,0.1-0.2,0.2c-0.2,1-1.1,1-1.9,1.3c-0.5,0.2-1,0.5-1.2,1
			c-0.4,0.6-0.6,1.3-0.6,2C38.6,46.7,38.5,46.8,38.3,46.8L38.3,46.8z M36.8,41.7h0.1c0.1-0.1,0.2-0.2,0.2-0.3c0.4-1,0.7-2.1,1-3.2
			c0.2-1,0.2-2.1,0-3.2c-0.2-0.9-0.3-1.9-0.4-2.8c0-0.9,0.2-1.7,0.2-2.6c-0.1-1.2-0.2-2.3-0.4-3.4c0-0.2-0.3-0.5-0.4-0.5
			c-0.6,0-1.2-0.3-1.6-0.8c-0.8-0.8-1.8-0.6-2.7-0.6c-0.3,0.1-0.6,0.2-0.8,0.5c-0.4,0.5-1,0.6-1.6,0.4c-0.3-0.1-0.6-0.3-0.9-0.4
			c-0.1,0-0.4,0-0.5,0.1c-0.4,0.5-1.1,0.8-1.8,0.7c-0.6-0.1-1.2,0.4-1.3,1c0,0.1,0,0.2,0,0.3c0,0.3,0,0.6,0,1c0,0.1-0.1,0.2-0.2,0.3
			c-0.1-0.1-0.3-0.2-0.3-0.3c0-0.3,0-0.6,0-0.8c0-1-0.1-1-1-0.9c-0.6,0-1.4,0.4-1.9-0.2c-0.7-0.8-1.6-0.7-2.5-1
			c-0.4-0.2-0.8-0.3-1.2-0.5s-0.8-0.4-1.2-0.7c-0.2-0.1-0.5-0.2-0.7-0.4c-0.2-0.2-0.5-0.2-0.7,0c0,0,0,0,0,0
			c-0.6,0.5-1.3,0.9-1.9,1.5c-0.2,0.3-0.4,0.6-0.5,0.9c0,0.2,0,0.5,0,0.7c-0.4,3.3-0.8,6.7-1.3,10c0,0.1-0.1,0.4-0.2,0.4
			c-0.5,0-1.1-0.1-1.6-0.2l-0.9-0.1c0.2,0.3,0.3,0.6,0.5,0.8c0.1,0.1,0.3,0.1,0.4,0.1l1.8,0.3c0,2.2,0.8,4.2,2,5c0-0.3,0-0.5,0-0.8
			c-0.1-1-0.3-2.1-0.4-3.1c0-0.4,0.1-0.8,0.2-1.1h0.2c0.1,0.3,0.1,0.7,0.1,1c-0.2,0.8,0.1,1.7,0.7,2.3c0.1,0.1,0.4,0.2,0.5,0.2
			c0.3-0.2,0.7-0.5,0.7-0.7c-0.1-0.5,0.2-0.7,0.5-1c1-1,2-2.1,2.8-3.2c0.5-0.7,1.2-1.2,2-1.5c0.8-0.2,1.2,0,1.2,0.7
			c0,0.1-0.1,0.3-0.1,0.4c-0.1-0.1-0.3-0.2-0.4-0.3s-0.4-0.3-0.5-0.5c-0.2,0.2-0.3,0.4-0.5,0.7c-0.1,0.3-0.1,0.7,0,1
			c0.1,0.2,0.4,0.5,0.6,0.5c0.8,0,1.5,0.3,2.1,0.7c0.9,0.7,2.2,0.5,3-0.3c0.4-0.4,1-0.7,1.6-0.6c0.6,0.2,1.2-0.2,1.3-0.7
			c0.1-0.3,0-0.6-0.2-0.9c-0.2-0.5-0.6-0.6-0.9-0.1c-0.1,0.1-0.2,0.2-0.3,0.2c-0.1-0.1-0.2-0.2-0.2-0.3c-0.1-0.3,0.1-0.6,0.5-0.7
			c0.1,0,0.2,0,0.3,0c0.3,0.1,0.6,0.3,0.9,0.5c0.1,0.1,0.3,0.3,0.4,0.3c0.7-0.1,0.9,0.5,1.3,0.8s0.6,0.6,0.8,0.8
			c1.1,1.1,2.7,1.8,2.9,3.6c0,0.1,0.3,0.3,0.5,0.4c0.1-0.1,0.2-0.3,0.3-0.5c0.1-0.5,0.2-1,0.4-1.6H37C37.4,40,36.8,40.8,36.8,41.7z
			 M33.8,43.9L33.6,44l-0.3-0.4c-0.3-0.4-0.6-0.8-0.8-1.1s-0.6-0.3-0.9-0.1s-0.9,0.5-1.3,0.8c-2,1.3-4.2,0.9-6.4,0.9
			c-0.1,0-0.2,0-0.3-0.1c-0.9-0.5-1.9-0.9-2.8-1.5s-1-0.7-1.5,0.3c-0.4,0.6-0.8,1.3-1.2,2l1.6,0.2l0,0.3l0.8,0.3
			c0.3,0.1,0.7,0.4,0.8,0c0.2-0.8,0.5-0.5,0.9-0.3c1.6,0.9,3.5,1.2,5.3,0.8c0.3,0,0.5-0.3,0.8-0.2c0.5,0.1,0.8-0.1,1.1-0.4
			s0.9-0.5,1.4-0.8l0.1,0.2c-0.1,0.1-0.2,0.3-0.3,0.4c-0.1,0.1-0.2,0.3-0.1,0.4c0.2,0.3,0.5,0.8,0.8,0.8c0.5,0,0.9-0.2,1-0.7
			c0.1-0.5,0.3-0.9,0.7-1.2c0.1-0.1,0.5-0.3,0.6-0.2c0.4,0.5,0.9,0.2,1.5,0.3c-0.1-1.1-0.9-1.8-1.3-2.7l-0.2,0.1L33.8,43.9z
			 M25,43.9c2-0.1,3.7-0.3,5.2-1.3c0.2-0.2,0.3-0.4,0.4-0.6c-0.2-0.1-0.5-0.3-0.7-0.3c-1.1,0.1-2.1,0.3-3.2,0.3
			c-1.6,0-3.3-0.1-4.9-0.1c-0.1,0-0.3,0.1-0.4,0.1c0.1,0.2,0.1,0.4,0.2,0.4C22.6,43.2,23.8,43.7,25,43.9z M30.8,35.8
			c0,0.1-0.1,0.3-0.1,0.4c-0.1,1.1-0.1,1.2-1.2,1.4c-0.4,0-0.8,0.1-1.2,0.3c-0.2,0.1-0.2,0.3-0.3,0.5c0.1,0.1,0.3,0.2,0.4,0.2
			c0.6-0.2,1,0.2,1.2,0.6s0.5,0.9,0.7,1.4c0.1,0.1,0.2,0.3,0.3,0.4c0.1-0.2,0.1-0.3,0.1-0.3c-0.2-0.4-0.4-0.8-0.6-1.2
			c-0.1-0.1,0-0.3,0.1-0.5c0.1,0.1,0.3,0.2,0.4,0.3c0.2,0.3,0.3,0.7,0.5,1c0.1,0.2,0.3,0.5,0.4,0.7l0.2-0.1l-0.7-1.7l0.1-0.1
			l3.1,1.1C34,39.7,31.6,36.3,30.8,35.8L30.8,35.8z M21.3,40.8c0.1-0.3,0.1-0.6,0.2-0.9c0.1-0.2,0.2-0.4,0.3-0.6l0.5,0.3l0.4-1
			l0.3,0.1l-0.2,2h0.2c0-0.4,0.1-0.8,0.2-1.3c0.2-0.4,0.4-0.8,0.6-1.2c-0.7-0.2-1.4-0.4-2.1-0.6c-0.5-0.1-0.8-0.4-0.9-0.9
			c0-0.2,0-0.3,0-0.5l-0.1-0.1c-0.4,0.7-0.8,1.4-1.2,2s-0.9,1.3-1.3,1.9l0.2,0.2c0.2-0.2,0.4-0.4,0.5-0.6c0.1-0.1,0.2-0.2,0.4-0.2
			c0,0.1,0.1,0.3,0.1,0.4c0,0.1,0.1,0.3,0.1,0.4c0.5-0.1,0.2-1.5,1.1-0.6l0.4-0.7C21.6,39.6,21,40.2,21.3,40.8L21.3,40.8z M28,52.3
			l0.2-0.1c-0.1-0.3-0.1-0.7-0.3-1c-0.3-0.5-0.2-1.2,0.3-1.5c0.1-0.1,0-0.7-0.1-0.9c-0.5-0.4-1.6,0.1-1.8,0.8
			c-0.1,0.4-0.1,0.8-0.1,1.2c0,0.1,0.1,0.3,0.2,0.4c0.1,0,0.3-0.1,0.4-0.2c0.4-0.4,0.5-0.3,0.7,0.2C27.6,51.5,27.8,51.9,28,52.3z
			 M24.6,50.8c0.6-0.9,0.9-2.5,0.4-3C24.6,48.7,24.4,49.8,24.6,50.8L24.6,50.8z M30.8,53.3c0.4-1.2,0.3-2.4-0.4-3.5L30.8,53.3z
			 M40.4,36.5c-0.3,0-0.7-0.1-1-0.1c-0.1,0-0.4,0.2-0.3,0.3c0,0.3,0.1,0.6,0.2,0.7C39.7,37.6,40.4,37,40.4,36.5L40.4,36.5z
			 M1.8,29.5l0.3-0.1c0.1-0.3,0.1-0.7,0.1-1C2.2,28.3,2,28.2,2,28c-0.2,0.2-0.6,0.3-0.5,0.5C1.5,28.8,1.7,29.2,1.8,29.5L1.8,29.5z
			 M30.8,24.8l0.5-0.4l-0.7-0.7l-0.5,0.6L30.8,24.8z M35.3,24.1c0.5,0.3,0.8,0.7,1.3,0.4c0-0.1,0-0.3-0.1-0.4
			C36.1,23.6,35.8,23.7,35.3,24.1L35.3,24.1z M26.9,53.6h0.2c0.3-0.6,0.2-1.3-0.2-1.9V53.6z M17,46.9h-0.2c-0.3,0.8-0.4,1.6-0.1,2.4
			L17,46.9z M4.9,12.3L5.1,12c-0.2-0.2-0.4-0.4-0.6-0.6c-0.1,0-0.3,0-0.4,0.1c-0.1,0.1-0.1,0.2,0,0.4C4.3,12,4.6,12.1,4.9,12.3z
			 M32.5,48.8l-0.2,0.1l0.5,1.8l0.3-0.1L32.5,48.8z M2.5,16.2l0.1-0.4c-0.3-0.1-0.6-0.2-0.9-0.3c0,0-0.1,0.3-0.2,0.4L2.5,16.2z
			 M13.5,3.7c-0.5,0.5-0.4,1,0.4,1.4L13.5,3.7z M46.4,36.8l0.2-0.1l-0.3-1.3C45.8,35.9,45.9,36.4,46.4,36.8z M29,49.4h0.2
			c0.1-0.2,0.3-0.5,0.3-0.5c-0.2-0.2-0.4-0.3-0.6-0.3c-0.1,0-0.3,0.1-0.3,0.2C28.7,49,28.9,49.2,29,49.4z M0.3,22.5L0.8,23
			c0.1-0.2,0.4-0.3,0.4-0.5s-0.2-0.3-0.4-0.4L0.3,22.5z M22.1,24.2l0.5-0.5c-0.1-0.1-0.3-0.3-0.5-0.3s-0.3,0.2-0.5,0.3L22.1,24.2z
			 M30.3,2.2l-0.5-0.6c-0.1,0.1-0.3,0.2-0.2,0.3c0.1,0.2,0.3,0.4,0.5,0.6C30.1,2.4,30.2,2.3,30.3,2.2z M47.4,32.9
			c0.7-0.3,0.8-0.7,0.4-1.4L47.4,32.9z M6.9,9.9c0-0.6-0.3-0.8-0.7-1C6,9.5,6.4,9.7,6.9,9.9z M25.1,22.5l-0.8,0.1v0.2l0.8,0.6
			L25.1,22.5z M3,17.6l0.1-0.2l-1-0.5l0,0.2C2.2,17.4,2.6,17.6,3,17.6z M32.8,4.2l-0.1,0.2l1,0.5C33.7,4.2,33.4,4.1,32.8,4.2z
			 M1.2,19.7L1.2,20l1.1,0.2l0.1-0.3L1.2,19.7z M30.5,20.8c-0.1,0.2-0.3,0.4-0.3,0.5c0.1,0.2,0.3,0.3,0.5,0.5c0.1,0,0.2-0.1,0.2-0.2
			C30.8,21.4,30.7,21.2,30.5,20.8z M21.9,49.1L21.7,49l-0.4,1.2l0.2,0.1L21.9,49.1z M35.8,22.3l-0.2,0l-0.3,1.1l0.3,0.1L35.8,22.3z
			 M6.9,7.6L6.7,7.8l0.8,0.5l0.2-0.2L6.9,7.6z M5.3,38.2l0.2-0.1l-0.6-1l-0.2,0.1L5.3,38.2z"/>
		<path d="M74.5,51.2c0,0.1,0,0.3,0,0.4c0,1.4,0,2.8,0,4.1c0,0.5-0.2,0.7-0.7,0.7c-5.1,0-10.2,0-15.4,0c-2.1,0-4.2,0-6.2,0.1
			c-0.5,0-0.7-0.2-0.6-0.7c0-1,0-2.1,0-3.1c0-0.5,0.1-0.8,0.8-0.8c1.3,0,2.5,0,3.8-0.1s2.1-0.6,2.2-2c0.1-1.4,0.1-2.9-0.1-4.3
			c-0.1-0.5-0.4-1-0.7-1.4c-0.2-0.3-0.2-0.4,0-0.6c0.5-0.4,0.8-1.1,0.7-1.8c0-0.9,0-1.8,0-2.7c0.1-1.1-0.8-2-1.8-2
			c-0.1,0-0.2,0-0.3,0c-1.3,0-2.6,0-3.8,0c-0.5,0-0.6-0.2-0.6-0.7c0-3.8,0-7.6,0-11.4c0-3.2,0-6.5-0.1-9.7c0-0.6,0.2-0.7,0.7-0.7h9
			c3.8,0,7.7,0,11.5,0c4.9,0,9.8-0.1,14.6-0.1c3.6,0,6.5,3,6.5,6.7c0,0.6-0.1,1.2-0.3,1.8c-0.7,2.1-2.2,3.8-4.3,4.5
			c-1.8,0.8-3.8,1.5-5.7,1.8c-0.1,0-0.3,0.1-0.4,0.2c0.5,0.7,1.1,1.3,1.9,1.8c1.7,0.9,3.5,1.2,5.4,1.1c0.5,0,0.7,0.1,0.7,0.7
			c0,6.7,0,13.3-0.1,20c0,1-0.1,1.9-0.1,2.9c0,0.4-0.1,0.5-0.5,0.5c-2.3,0-4.6,0-6.8,0c-3.6-0.2-6.4-3.1-6.5-6.7c0-4.4,0-8.7,0-13.1
			c0-2.8-0.1-5.5-0.1-8.3c0-0.9,0-0.9,0.9-1c1.7-0.1,3.1-1.4,3.2-3.1c0.2-1.7-0.9-3.3-2.5-3.6c-1.1-0.3-2.4,0-3.2,0.9
			c-0.5,0.5-0.8,1.1-0.7,1.8c0,2.9,0,5.9,0,8.8c0,1.7,0,3.3,0,5v0.8c-0.1,0-0.2,0-0.2,0c-0.6-0.7-1.5-1-2.4-0.9c-1.3,0-2.6,0-3.9,0
			c-0.4,0-0.4,0.3-0.4,0.6c0,2.6,0,5.1,0,7.7c0,1.2,0,2.3,0,3.5c0,0.8,0.1,1.6,0.1,2.3c0,0.5,0.3,0.7,0.7,0.7c1.4,0,2.8,0,4.1-0.1
			C73.2,51.6,73.9,51.4,74.5,51.2z M66.5,42.9h-0.2c0-1.3,0-2.7,0-4.1c0.1-1-0.7-1.8-1.7-1.9c-0.1,0-0.2,0-0.2,0c-0.7,0-1.5,0-2.2,0
			c-2.3,0-2.8,0.8-2.8,3c0,1.2,0,2.4,0,3.7c0,2.2,0,4.3,0.1,6.5c0.1,1.3,0.8,1.8,2,1.8c1.1,0,2.1,0,3.2-0.1c0.9,0,1.7-0.7,1.7-1.6
			c0.1-1,0.1-2.1,0.1-3.2C66.5,45.7,66.5,44.3,66.5,42.9L66.5,42.9z"/>
		<path d="M92.7,44.3c0-2.9,0-5.8,0-8.7c-0.1-1.7,1.2-3.1,2.8-3.2c0.2,0,0.3,0,0.5,0h12.7c1.6-0.2,3.1,1,3.3,2.7c0,0.1,0,0.2,0,0.3
			c0.1,1.6,0,3.1,0,4.7c0,4.1,0,8.1,0,12.2c0,1.3-0.2,2.7-1.5,3.4c-0.6,0.3-1.2,0.5-1.9,0.5c-4.1,0.1-8.2,0.1-12.3,0.1
			c-2.3,0-3.4-1.2-3.4-3.4C92.8,50,92.8,47.1,92.7,44.3L92.7,44.3z M103.6,44.6L103.6,44.6v-1.3c0-1.7,0-3.4,0-5.2
			c0-0.5-0.4-0.9-0.8-1.1c-0.4-0.2-1-0.1-1.3,0.3c-0.3,0.4-0.5,0.9-0.5,1.4c0,4,0,8,0,12c-0.1,0.8,0.5,1.4,1.2,1.5c0,0,0.1,0,0.1,0
			c0.7,0,1.3-0.6,1.3-1.3c0-0.1,0-0.1,0-0.2C103.6,48.6,103.6,46.6,103.6,44.6z"/>
		<path d="M143.8,32.5h6.2c2.3,0,3.4,1.1,3.4,3.4c0,1.3,0,2.5,0,3.8c0,0.5-0.1,0.7-0.6,0.7c-1.6,0-3.1,0-4.7,0c-0.7,0-1.5,0-2.2,0.1
			c-0.4,0-0.6-0.2-0.6-0.5s0-1.1,0-1.6c0-0.7-0.6-1.3-1.3-1.3c0,0,0,0,0,0c-0.7,0-1.2,0.6-1.2,1.3c0,0,0,0.1,0,0.1
			c0,0.9,0,1.9,0,2.8c0,0.5,0.2,0.7,0.7,0.7c2.8,0,5.7,0,8.5,0c1.5,0,1.4-0.3,1.4,1.5c0,3.1,0,6.2,0,9.3c0.1,1.2-0.5,2.4-1.5,3.1
			c-0.5,0.3-1,0.4-1.6,0.5c-4.2,0-8.5,0-12.8,0c-1.6,0.1-2.9-1.2-3-2.8c0-0.1,0-0.1,0-0.2c0-1.4,0-2.8,0-4.2c0-0.5,0.1-0.6,0.6-0.6
			h7c0.5,0,0.8,0.2,0.7,0.8c0,0.6,0,1.1,0,1.7c-0.1,0.7,0.4,1.3,1,1.4c0,0,0,0,0.1,0c0.6,0,1.2-0.5,1.3-1.1c0.1-0.6,0.1-1.2,0.1-1.8
			c0-0.5,0-0.9,0-1.4s-0.2-0.8-0.7-0.8c-2,0-4.1,0-6.1,0h-3.4c-0.4,0-0.6-0.2-0.6-0.6c0-3.7,0-7.4,0-11c0-1.7,1.3-3,3-3
			c0,0,0,0,0.1,0L143.8,32.5L143.8,32.5z"/>
		<path d="M123.2,56.2c-2,0-3.9-0.1-5.9,0c-1.8,0.1-3.4-1.3-3.5-3.1c0-0.2,0-0.4,0-0.6c0.1-1.2,0.1-2.4,0-3.6c0-0.5,0.2-0.7,0.7-0.7
			h7c0.3,0,0.5,0.1,0.5,0.5c0,0.7,0,1.5,0,2.2c0.1,0.7,0.6,1.1,1.3,1.1c0.6-0.1,1-0.5,1.1-1.1c0.1-1,0-2.1,0.1-3.2
			c0-0.4-0.1-0.6-0.6-0.6c-1.9,0-3.8,0-5.6,0c-1.3,0-2.5,0-3.8,0c-0.5,0-0.6-0.2-0.6-0.6c0-3.6,0-7.2,0-10.9
			c-0.1-1.3,0.6-2.6,1.9-3.1c0.6-0.2,1.1-0.2,1.7-0.2c3.9,0,7.8,0,11.7,0c1.7-0.1,3.1,1.1,3.2,2.8c0,0.1,0,0.2,0,0.2
			c0,1.5,0,3,0,4.5c0,0.4-0.1,0.6-0.5,0.6c-2.4,0-4.7,0-7.1,0c-0.3,0-0.4-0.1-0.4-0.4c0-0.6,0-1.2,0-1.8c0-0.7-0.5-1.2-1.2-1.3
			c-0.7,0-1.2,0.6-1.1,1.3c0,0,0,0,0,0c0,1,0,2,0,2.9c0,0.5,0.2,0.6,0.6,0.6c2.8,0,5.5,0,8.3,0c1.7,0,1.6-0.1,1.6,1.6
			c0,3,0,6.1,0,9.1c0.2,1.4-0.6,2.7-1.8,3.3c-0.7,0.3-1.4,0.4-2.1,0.4C126.9,56.2,125.1,56.2,123.2,56.2L123.2,56.2z"/>
		<path d="M85.5,63.7c0,1.2,0,2.3,0,3.5c0,0.4,0,0.7-0.5,0.6s-0.7,0-0.7-0.6c0-2.1-0.1-4.2-0.1-6.2c0-0.3-0.2-0.6,0.3-0.7
			c0.8-0.1,1,0,1.2,0.5c0.3,1,0.6,2.1,0.9,3.2c0,0.2,0.1,0.3,0.3,0.4v-2.9c0-0.2,0-0.4,0-0.7s0-0.7,0.5-0.7s0.7,0,0.7,0.6
			c0,2,0,4,0.1,6.1c0,0,0,0.1,0,0.1c-0.1,0.8-0.1,0.8-0.9,0.8c-0.4,0-0.5,0-0.6-0.4c-0.3-1.1-0.7-2.2-1-3.3
			C85.6,63.9,85.6,63.7,85.5,63.7z"/>
		<path d="M141.3,63.8c0,0.4,0.1,0.7,0.1,1c0,0.8,0,1.6,0,2.4c0,0.4-0.2,0.5-0.6,0.5s-0.7,0.1-0.7-0.5c0-2.2,0-4.3,0-6.5
			c0-0.4,0.1-0.5,0.6-0.5c0.8-0.1,0.9,0.3,1,0.9c0.3,1.1,0.6,2.2,0.9,3.3c0.1,0.1,0.1,0.3,0.2,0.4c0-1.4,0-2.7,0-4
			c0-0.5,0.1-0.6,0.6-0.6s0.6,0.2,0.6,0.6c0,2,0,4-0.1,6c0,0.3,0,0.6-0.1,0.9c-0.3,0-0.7,0-1,0c-0.2-0.1-0.3-0.2-0.4-0.4
			c-0.3-1.1-0.6-2.2-0.9-3.3c0-0.1-0.1-0.2-0.1-0.3L141.3,63.8z"/>
		<path d="M116.9,63.5c0.1,0.4,0.2,0.8,0.3,1.3c0,0.9,0,1.9,0,2.9c-0.3,0-0.6,0-0.9,0c-0.1,0-0.2-0.3-0.2-0.4c0-0.7,0-1.4-0.1-2.2
			c0-0.3-0.1-0.5-0.3-0.7c-0.2-0.1-0.4-0.2-0.6-0.1c-0.1,0-0.2,0.3-0.2,0.4c0,0.8,0,1.6,0,2.5c0,0.6-0.4,0.4-0.7,0.5
			s-0.5-0.1-0.5-0.5c0-2.2,0-4.3,0-6.5c0-0.4,0.1-0.6,0.5-0.6s1,0,1.5,0c1.1,0,1.3,0.3,1.4,1.3C117.3,62.2,117.5,63,116.9,63.5z
			 M115.1,63.2c0.9,0.1,1-0.1,1-1s-0.2-1.1-1-1V63.2z"/>
		<path d="M154,67.6l-0.2,0.1c-1,0.1-1,0.1-1-0.9c0-2,0-4,0-5.9c0-0.5,0.1-0.8,0.7-0.7s1.1,0,1.7,0.1c0.6,0,1,0.4,1,1
			c0,0.8,0.3,1.7-0.3,2.2c0.1,0.7,0.3,1.2,0.3,1.7c0,0.8,0,1.6,0,2.4c-1,0.2-1.1,0.1-1.2-0.9c0-0.5,0-1,0-1.6c0-0.2,0-0.4-0.1-0.6
			c-0.2-0.2-0.4-0.3-0.7-0.3c-0.1,0-0.2,0.3-0.2,0.5c0,0.7,0,1.3,0,2C154,67.1,154,67.4,154,67.6z M154,63.3c0.5,0.1,0.9,0.1,1-0.4
			c0.1-0.4,0.1-0.9,0-1.3c0-0.2-0.4-0.3-0.7-0.3c-0.1,0-0.3,0.2-0.3,0.3C154,62.1,154,62.7,154,63.3z"/>
		<path d="M109.4,64.2c0-0.8,0.1-1.7,0.1-2.6c0-0.9,0.7-1.6,1.6-1.6c0,0,0.1,0,0.1,0c1.1,0,1.7,0.5,1.8,1.5c0,1.6,0,3.2,0,4.8
			c0,1-0.7,1.5-1.7,1.5c-0.9,0.1-1.7-0.5-1.8-1.4c0,0,0,0,0,0C109.4,65.7,109.4,65,109.4,64.2z M112,64.1L112,64.1
			c0-0.8,0-1.6,0-2.4c-0.1-0.3-0.3-0.4-0.6-0.5c-0.2,0-0.5,0.3-0.5,0.5c0,1.6,0,3.2,0,4.8c0,0.2,0.3,0.4,0.5,0.5
			c0.2,0,0.5-0.2,0.6-0.4c0.1-0.2,0.1-0.4,0.1-0.6C112,65.3,112,64.7,112,64.1L112,64.1z"/>
		<path d="M83.3,64.4c0,0.6,0,1.4-0.2,2.2s-0.7,1.3-1.8,1.3c-0.9,0-1.6-0.4-1.7-1.3c-0.1-1.7-0.1-3.3-0.1-5c0-1,0.8-1.5,1.8-1.4
			c0.8-0.1,1.6,0.5,1.7,1.3c0,0.1,0,0.2,0,0.3C83.2,62.6,83.2,63.4,83.3,64.4z M82.1,64.2L82.1,64.2c0-0.8,0-1.7-0.2-2.5
			c-0.1-0.3-0.3-0.5-0.5-0.6c-0.4-0.1-0.6,0.2-0.6,0.5c0,1.6,0,3.1,0.1,4.7c0,0.3,0.2,0.5,0.5,0.5c0.1,0,0.2,0,0.2,0
			c0.2-0.1,0.4-0.3,0.5-0.6C82.1,65.6,82.1,64.9,82.1,64.2z"/>
		<path d="M93.3,67.9c-1.6,0.1-1.9-1.2-1.8-2.4c0-0.1,0.4-0.3,0.7-0.3s0.3,0.2,0.4,0.3s0,0.5,0.1,0.8s0.3,0.5,0.5,0.5
			c0.3,0,0.5-0.1,0.7-0.4c0.2-0.4,0.1-0.9-0.2-1.3c-0.4-0.5-0.9-0.9-1.4-1.3c-0.9-0.8-1.1-2.2-0.4-3.2c0.5-0.5,1.2-0.7,1.9-0.5
			c0.6,0.1,1.1,0.6,1.1,1.3c0,0.2,0,0.4,0.1,0.6c0,0.4,0,0.6-0.5,0.6s-0.7-0.1-0.6-0.6c0-0.1,0-0.3-0.1-0.4
			c-0.1-0.2-0.4-0.5-0.5-0.5s-0.6,0.3-0.5,0.5c0,0.4,0.2,0.8,0.4,1.1c0.4,0.5,0.9,0.9,1.3,1.3c0.5,0.5,0.8,1.2,0.8,1.9
			c0.1,0.9-0.5,1.7-1.4,1.9C93.6,67.9,93.4,67.9,93.3,67.9z"/>
		<path d="M105.3,67.8c-0.2,0-0.5,0-0.7,0c-0.2-0.1-0.4-0.2-0.4-0.4c-0.1-0.3-0.2-0.7-0.2-1.1c0-0.6-0.4-0.5-0.7-0.5
			s-0.5,0.2-0.6,0.5s-0.1,0.9-0.2,1.5h-1.2c0.1-1,0.3-1.8,0.4-2.7c0.2-1.5,0.5-2.9,0.7-4.4c0-0.3,0.2-0.5,0.6-0.5
			c1.1,0,1.1,0,1.3,1.1c0.4,1.9,0.7,3.9,1,5.8C105.2,67.4,105.3,67.6,105.3,67.8z M102.9,64.8c0.4,0,0.7,0.2,0.7-0.3
			c-0.1-0.7-0.2-1.3-0.3-1.9h-0.1L102.9,64.8z"/>
		<path d="M137.4,67.6c-1,0.2-1.1,0.1-1.2-0.8c0-0.2,0-0.3-0.1-0.5c0-0.5-0.3-0.6-0.8-0.6s-0.5,0.4-0.6,0.7c0,0.1,0,0.3,0,0.4
			c-0.1,1-0.2,1-1.3,0.8c0.1-0.5,0.1-1,0.2-1.6c0.3-1.8,0.6-3.6,0.9-5.4c0-0.3,0.2-0.5,0.5-0.4c0.3,0,0.5,0,0.8,0
			c0.2,0.1,0.4,0.2,0.4,0.4c0.4,2.3,0.8,4.5,1.2,6.8C137.5,67.5,137.4,67.5,137.4,67.6z M135.5,62.4h-0.2c-0.1,0.6-0.2,1.2-0.2,1.7
			c0,0.2,0,0.4,0.1,0.5s0.4,0,0.6,0C135.7,63.8,135.6,63.1,135.5,62.4z"/>
		<path d="M74,65.3c0,0.3,0.1,0.7,0.1,1c0,0.4,0.3,0.6,0.7,0.6c0,0,0.1,0,0.1,0c0.3,0,0.6-0.3,0.6-0.6c0-0.1,0-0.1,0-0.2
			c-0.1-0.4-0.3-0.8-0.6-1.2c-0.4-0.4-0.8-0.8-1.2-1.2c-0.6-0.6-0.8-1.6-0.5-2.4c0.2-0.8,1-1.3,1.9-1.1c0.8,0,1.4,0.7,1.5,1.5
			c0,0.1,0,0.3,0,0.4c0,0.3,0.1,0.6-0.4,0.6s-0.8,0.1-0.7-0.6c0-0.2,0-0.4-0.1-0.6c-0.1-0.2-0.4-0.3-0.5-0.3s-0.5,0.3-0.5,0.4
			c0,0.4,0.1,0.8,0.3,1.1c0.4,0.5,0.8,0.9,1.2,1.3c0.8,0.7,1,1.8,0.7,2.8c-0.2,0.7-0.9,1.2-1.6,1.1c-1,0-1.6-0.3-1.8-1
			C73,66.6,73,66.4,73,66.2C72.9,65.1,73,65.1,74,65.3z"/>
		<path d="M107.2,65c0.2-1.4,0.3-2.8,0.4-4.2c0-0.4,0.3-0.7,0.7-0.7c0.1,0,0.2,0,0.3,0.1c0.1,0.1,0.1,0.3,0.1,0.5
			c-0.2,1.9-0.5,3.8-0.7,5.6c0,0.1,0,0.2,0,0.3c-0.1,1.2-0.3,1.3-1.4,1.1c-0.2-0.1-0.3-0.2-0.3-0.3c-0.3-2.3-0.7-4.5-1-6.8
			c0-0.2,0.1-0.3,0.3-0.4c0.3,0.1,0.9-0.3,1,0.4c0.1,1.3,0.3,2.6,0.4,3.9C107.1,64.7,107.1,64.8,107.2,65L107.2,65z"/>
		<path d="M70.1,60.3c-0.1,0.8-0.2,1.6-0.3,2.3c-0.2,1.5-0.4,3-0.6,4.5c0,0.5-0.2,0.7-0.7,0.6c-0.2,0-0.3,0-0.5,0
			c-0.4,0-0.5-0.1-0.6-0.5c-0.3-2.2-0.7-4.3-1-6.5c0-0.2,0.1-0.4,0.2-0.5c0.3,0.1,0.9-0.3,1,0.4c0.1,1.2,0.3,2.3,0.4,3.5
			c0,0.3,0.1,0.6,0.2,0.9c0.1-1,0.2-2.1,0.3-3.1c0-0.2,0-0.5,0.1-0.7C68.9,60.2,68.9,60.2,70.1,60.3z"/>
		<path d="M131.5,67.6l-0.3,0.1c-0.9,0-0.9,0-0.9-0.9c0-2,0-4,0-5.9c0-0.6,0.2-0.8,0.8-0.7s0.9,0,1.3,0c0.7-0.1,1.3,0.5,1.4,1.2
			c0,0,0,0.1,0,0.1c0,0.4,0,0.8,0,1.3c-0.1,1.1-0.6,1.6-1.7,1.5c-0.5,0-0.6,0.1-0.6,0.6C131.5,65.8,131.5,66.7,131.5,67.6z
			 M131.5,61.2v1.6c0,0.4,0.2,0.5,0.5,0.4c0.5-0.1,0.7-0.3,0.6-1.3C132.6,61.2,132.4,61.1,131.5,61.2L131.5,61.2z"/>
		<path d="M65.9,66.8v1c-1,0-2,0-3,0c-0.1,0-0.3-0.3-0.3-0.4c0-2.2-0.1-4.4-0.1-6.6c0-0.3,0.1-0.5,0.5-0.5c0.8,0,1.6-0.1,2.4,0
			s0.3,0.6,0.3,1h-1.3c-0.1,0-0.2,0-0.2,0c-0.9,0.3-0.2,1-0.4,1.5c-0.1,0.3,0,0.6,0.5,0.6s0.8,0,1.2,0c0.2,0.9,0.2,0.9-0.7,1
			s-1,0.1-1,1.1c0,1.3,0,1.3,1.3,1.3H65.9z"/>
		<path d="M125.5,61.2c0,0.7,0,1.2,0,1.8c0,0.1,0.2,0.3,0.4,0.3c0.4,0,0.9,0,1.4,0v1c-0.5,0-0.9,0-1.3,0s-0.5,0.1-0.5,0.5
			c0,0.6,0,1.1,0,1.8h2.2v1.1h-1.9c-1.4,0-1.4,0-1.4-1.4c0-2,0-4,0-6.2c0.9,0,1.8,0,2.8,0c0.1,0,0.2,0.4,0.3,0.6s0,0.5-0.4,0.5
			L125.5,61.2z"/>
		<path d="M150.2,61.3c0,0.3,0,0.4,0,0.6c0,0.5-0.1,1,0.1,1.3s0.8,0.1,1.2,0.1s0.4,0.3,0.4,0.6c0,0.3-0.2,0.4-0.5,0.4
			c-1.3-0.1-1.3-0.1-1.3,1.2s0,1.2,1.2,1.2h0.1c0.9,0,0.9,0,0.8,1H149v-1.4c0-1.8,0-3.5,0-5.3c0-0.8,0-0.8,0.8-0.8c0.6,0,1.3,0,2,0
			c0.3,0,0.5,0.1,0.4,0.5s0,0.6-0.5,0.6S150.7,61.3,150.2,61.3z"/>
		<path d="M150.7,26.4c-0.1-2.2,1.6-4,3.8-4.1c2.2-0.1,4,1.6,4.1,3.8c0,0.1,0,0.3,0,0.4c0,2.1-1.7,3.8-3.8,3.8c0,0-0.1,0-0.1,0
			c-2.1,0.1-3.8-1.5-3.9-3.6C150.7,26.6,150.7,26.5,150.7,26.4z M157.9,26.5c0-1.8-1.5-3.3-3.3-3.4c-1.9,0-3.4,1.5-3.4,3.4
			c0,0,0,0,0,0c0,1.8,1.5,3.3,3.3,3.2C156.4,29.7,157.8,28.3,157.9,26.5z"/>
		<path d="M57.9,60.4c0.1,1,0.1,1-0.8,1c-1.3,0-1.1-0.2-1.1,1.1c0,1,0,1,1,0.9s1,0,0.8,1c-0.4,0-0.8,0-1.2,0s-0.5,0.1-0.5,0.5
			s0,0.9,0,1.3s0.1,0.6,0.6,0.6s1,0,1.5,0c0.3,0.9,0.2,1-0.7,1c-0.7,0-1.3,0-2,0c-0.3,0-0.5-0.1-0.5-0.4c0-2.2,0-4.5,0-6.7
			c0-0.1,0.2-0.3,0.2-0.3C56.1,60.4,57,60.4,57.9,60.4z"/>
		<path d="M99.5,64.3c0,1,0,2,0,2.9c0,0.5-0.2,0.6-0.6,0.6s-0.6,0-0.6-0.5c0-2.1,0-4.3-0.1-6.4c0-0.5,0.1-0.7,0.6-0.6
			c0.7,0,1.4,0,2.2,0c0.5,0,0.4,0.3,0.4,0.6s-0.1,0.5-0.4,0.5h-0.1c-1.6,0-1.6,0-1.4,1.6c0,0.3,0.1,0.4,0.4,0.4s0.6,0,0.9,0
			s0.6,0.1,0.6,0.5s-0.2,0.6-0.6,0.5S99.9,64.3,99.5,64.3z"/>
		<path d="M121.4,61.3h-0.9c-0.4,0-0.6,0-0.6-0.5s0.2-0.6,0.7-0.6c1.1,0,2.2,0,3.2,0c0,0.2,0,0.4,0.1,0.6c0.1,0.4-0.1,0.5-0.5,0.5
			c-0.8,0-0.9,0-0.8,0.9c0,1.5,0,3,0.1,4.5c0,1.1,0,1.1-1.2,1V61.3z"/>
		<path d="M52,67.8v-4c0-0.6,0-1.2,0-1.7s-0.1-0.6-0.6-0.6c-0.3,0-0.8,0.2-0.8-0.4s0.1-0.7,0.6-0.7c1,0,1.9,0,2.9,0
			c0.1,0,0.4,0.2,0.4,0.3c0,0.3,0.2,0.7-0.3,0.8c-0.3,0-0.8,0-1,0.2s0,0.6,0,0.9c0,1.5,0,3,0,4.5c0,0.8,0,0.8-0.8,0.8L52,67.8z"/>
		<path d="M146,64.5c0-0.8,0-1.6,0-2.3s0-0.8-0.8-0.8c-0.5,0-0.6-0.2-0.6-0.6s0.2-0.5,0.6-0.5c1,0,1.9,0,2.9,0
			c0.3,0,0.5,0.1,0.5,0.5s0.1,0.6-0.5,0.6c-0.9,0-0.9,0-0.9,0.9c0,1.5,0,3.1,0,4.7c0,0.4,0.2,0.8-0.6,0.8S146,67.4,146,67V64.5z"/>
		<path d="M61.9,67.8c-1,0-1.9,0-2.8,0c-0.1,0-0.3-0.3-0.3-0.4c0-1.3,0-2.6,0-4c0-0.8,0-1.7-0.1-2.6c0-0.5,0.3-0.5,0.7-0.5
			s0.6,0,0.6,0.5c0,1.8,0,3.6,0,5.3c0,0.5,0.1,0.7,0.6,0.6c0.1,0,0.3,0,0.4,0C62,66.6,62,66.6,61.9,67.8z"/>
		<path d="M70.9,64c0-1,0-2.1,0-3.1c0-0.5,0.3-0.5,0.6-0.5s0.6,0,0.6,0.5c0,2,0,4.1,0,6.1c0,0.4,0,0.9-0.7,0.9
			c-0.4,0-0.5-0.2-0.5-0.5C70.9,66.2,70.9,65.1,70.9,64L70.9,64z"/>
		<path d="M119.4,61.1c0,2,0,4,0,6c0,0.5-0.2,0.5-0.6,0.5s-0.6,0-0.6-0.4c0-2.2-0.1-4.3-0.1-6.5c0-0.6,0.3-0.6,0.7-0.6
			s0.4,0.3,0.4,0.6c0,0.1,0,0.2,0,0.4L119.4,61.1z"/>
		<path d="M138.1,60.2c0.1,0,0.1,0,0.2-0.1c0.9,0,0.9,0,0.9,0.9c0,2,0,4,0,6c0,0.4,0,0.6-0.5,0.6s-0.6-0.1-0.6-0.6
			c0-2.1,0-4.3,0-6.4C138.1,60.5,138.1,60.4,138.1,60.2z"/>
		<path d="M78.7,67.7h-1.1v-2.8c0-1.3,0-2.7-0.1-4c0-0.4,0.1-0.7,0.6-0.7s0.6,0.2,0.6,0.6C78.7,63.1,78.7,65.4,78.7,67.7z"/>
		<path d="M54.3,47.4c0-0.5,0-0.9,0-1.4c0.1-0.2,0.2-0.4,0.3-0.6c0.2,0.1,0.5,0.3,0.7,0.5c0.1,0.1,0,0.4,0,0.6c0,0.8,0,1.5,0,2.3
			c0,0.4-0.2,0.7-0.6,0.7s-0.4-0.3-0.4-0.6S54.3,47.9,54.3,47.4L54.3,47.4z"/>
		<path d="M70.6,47.3c0-0.5,0-1,0-1.4c0-0.2,0.2-0.4,0.4-0.5c0.2,0.2,0.6,0.3,0.6,0.5c0,1,0,2.1,0,3.1c0,0.2-0.3,0.3-0.6,0.4
			s-0.3-0.3-0.3-0.5C70.6,48.4,70.7,47.9,70.6,47.3L70.6,47.3z"/>
		<path d="M70.6,40.9c0-0.3,0-0.6,0-0.8c0-0.2,0.2-0.5,0.3-0.5s0.6,0.2,0.6,0.3c0,0.8,0,1.5,0,2.3c0,0.1-0.3,0.3-0.5,0.3
			s-0.3-0.2-0.3-0.4C70.6,41.7,70.6,41.3,70.6,40.9L70.6,40.9z"/>
		<path d="M55.3,41c0,0.4,0,0.8-0.1,1.2c0,0.2-0.3,0.3-0.5,0.4s-0.3-0.2-0.3-0.4c0-0.7,0-1.3,0-2c0-0.2,0.2-0.4,0.3-0.4
			s0.5,0.1,0.6,0.3C55.3,40.3,55.3,40.7,55.3,41z"/>
		<path d="M89.4,62c0-0.6-0.1-1.2-0.1-1.8c0-0.4,0.2-0.4,1-0.3C90.5,61,90.3,61.6,89.4,62z"/>
		<path d="M74.4,43.1v1.5C73.5,44.1,73.5,43.8,74.4,43.1z"/>
		<path class="st0" d="M2.5,16.2l-1-0.2c0.1-0.1,0.2-0.4,0.2-0.4c0.3,0.1,0.6,0.2,0.9,0.3L2.5,16.2z"/>
		<path class="st0" d="M3,17.6c-0.4,0-0.8-0.1-1-0.5l0.1-0.2l1,0.5L3,17.6z"/>
		<path class="st0" d="M5.5,38.1l-0.2,0.1l-0.6-1l0.2-0.1"/>
		<path class="st0" d="M111.9,64.1L111.9,64.1c0.1,0.6,0.1,1.2,0.1,1.9c0,0.2,0,0.4-0.1,0.6c-0.1,0.2-0.4,0.3-0.6,0.4
			c-0.2,0-0.5-0.3-0.5-0.5c0-1.6,0-3.2,0-4.8c0-0.2,0.4-0.5,0.5-0.5c0.3,0.1,0.5,0.2,0.6,0.5"/>
		<path d="M25,28.6l0.3,5.9H25c-0.1-0.2-0.1-0.4-0.2-0.5c-0.1-0.6-0.2-1.2-0.3-1.8c-0.1-0.6-0.2-0.9-0.8-1c-0.3,0-0.5-0.3-0.3-0.6
			c0.1-0.2,0.1-0.4,0-0.6c-0.4-0.9-1.1-1.6-2.1-2c-0.4-0.1-0.9,0.1-1.3,0c-1.8-0.2-3.5,0.3-5.2,0.5c-0.2,0-0.5,0-0.7,0
			c0.3-0.8,1-1.4,1.8-1.6c0.4-0.1,0.8-0.2,1.3-0.2c0.6,0,1.2,0.1,1.8,0.1c0.2,0,0.4,0.1,0.6,0.1c0.5-0.2,1-0.1,1.4,0.2
			c0.1,0.1,0.4,0,0.6-0.1s0.5-0.1,0.6,0c0.3,0.3,0.6,0.7,0.8,1.1c0.2,0.5,0.3,0.8,1,0.6C24.4,28.6,24.7,28.6,25,28.6z"/>
		<path d="M28.3,29.7L27,30.5l-0.2-0.2c0.1-0.3,0.3-0.6,0.5-0.9c0.8-0.8,1.9-1.2,3-1.2c1.3-0.1,2.7,0.3,3.8,1
			c0.3,0.2,0.6,0.3,0.9,0.5c0.1,0.1,0.3,0.2,0.4,0.3l-0.4,0.2l-0.3,0.1c0.2,0.2,0.3,0.3,0.5,0.5s0.5,0.3,0.2,0.7
			c0,0,0.1,0.3,0.2,0.4c0.1,0.1,0.3,0.3,0.4,0.5l-0.1,0.1l-1.8-1l0.6-0.3c-0.4-0.5-0.9-1.1-1.3-1.6s-0.7-0.3-1.1,0.1
			c-0.1,0.2-0.3,0.2-0.5,0.3c-0.6-0.1-1.4,0.4-1.9-0.5c0-0.1-0.5,0.1-0.9,0.2c0.4,0.5,0.8,0.9,1,1.3c0.1,0.2,0.1,0.3,0.1,0.5
			c-0.2,0.1-0.4,0.1-0.6,0.1C28.7,31.3,28.2,30.6,28.3,29.7z"/>
		<path d="M21.3,30.2c-0.6-0.5-0.6-0.5-1,0.1c-0.1,0.1-0.2,0.2-0.3,0.3c-0.4,0-0.8,0.1-1.2,0.1c-0.1,0-0.2-0.1-0.3-0.2
			c-0.2-0.7-0.7-0.5-1.1-0.2c-0.6,0.3-1.2,0.5-1.5,1.2c-0.3,0.5-0.9,0.8-1.4,1.1c-0.1,0-0.2,0-0.3,0c-0.1-0.1-0.1-0.2-0.1-0.3
			c0.2-0.2,0.3-0.4,0.4-0.6c0.3-0.8,1.1-1,1.8-1.4c0.1,0,0.1-0.1,0.2-0.1c1.2-1.7,2.9-1.4,4.6-1c0.5,0.2,0.9,0.4,1.3,0.8
			c0.2,0.2,0.3,0.5,0.2,0.8c-0.1,0.3-0.1,0.7-0.7,0.7c-0.3,0-0.5,0.3-0.8,0.4s-0.4,0.1-0.5,0c-0.1-0.1-0.3-0.5-0.2-0.7
			C20.8,30.9,21.1,30.5,21.3,30.2z M22.2,30.8l-0.1-0.2c-0.3,0.2-0.7,0.3-1,0.5c0,0-0.1,0.2,0,0.3s0.2,0.1,0.3,0
			C21.7,31.2,22,31,22.2,30.8z"/>
		<path d="M36,28.9l-1.5-0.8C34.4,28,34.2,28,34,27.9c-1-0.2-2-0.4-3.1-0.6c-0.1,0-0.2,0-0.4,0c-0.8,0.2-1.6,0.4-2.4,0.6
			c-0.2,0-0.5-0.1-0.6-0.2c-0.2-0.3,0.1-0.4,0.3-0.5c2-0.9,4.3-1,6.3-0.3c0.7,0.3,1.4,0.7,2,1.1c0.2,0.2,0.3,0.4,0.3,0.7
			C36.6,28.7,36.3,28.8,36,28.9z"/>
		<path d="M24.1,35.2l-0.4,1c-0.1-0.1-0.3-0.1-0.3-0.2C23.4,35.7,23.7,35.3,24.1,35.2C24.1,35.2,24.1,35.2,24.1,35.2z"/>
		<path d="M63.3,44.5c0,1.4,0,2.7,0,4.1c0,0.4,0,0.9-0.6,0.8s-0.4-0.5-0.4-0.9c0-1.8,0-3.6,0-5.3c0-1,0-2-0.1-3.1
			c0-0.4,0-0.8,0.5-0.8s0.5,0.4,0.5,0.8C63.3,41.6,63.3,43.1,63.3,44.5L63.3,44.5z"/>
		<path d="M152.7,26.2c0-0.4,0-0.9,0-1.3s0.2-0.5,0.5-0.6c0.8,0,1.6,0,2.4,0c0.5,0,0.9,0.3,1,0.7c0.2,0.4,0.1,1-0.2,1.3
			c-0.5,0.4-0.4,0.7-0.1,1.1c0.1,0.2,0.6,0.5,0.1,0.8s-0.8,0-1-0.5s-0.5-0.9-1.1-0.8c-0.3,0.1-0.5,0.2-0.5,0.5
			c0,0.3-0.1,0.5-0.2,0.7c-0.1,0.1-0.3,0.1-0.5,0.1c-0.2-0.1-0.3-0.2-0.3-0.4c0-0.6,0-1.1,0-1.7L152.7,26.2z M154.5,26L154.5,26
			c0.2,0,0.4,0,0.6,0c0.2-0.1,0.3-0.2,0.4-0.3c-0.1-0.1-0.3-0.3-0.4-0.3c-0.4,0-0.7,0-1.1,0c-0.1,0-0.3,0.3-0.3,0.4s0.2,0.3,0.3,0.3
			C154.2,26.1,154.4,26.1,154.5,26L154.5,26z"/>
	</g>
</g>
</svg>
