<svg xmlns="http://www.w3.org/2000/svg" width="457.54" height="210.15" viewBox="0 0 457.54 210.15"><defs><style>.cls-1{fill:#fff;}</style></defs><title>logosAsset 2</title><g id="Layer_2" data-name="Layer 2"><g id="Layer_1-2" data-name="Layer 1"><path class="cls-1" d="M328.91,134.9c2.24-3.29,4.27-6.72,6.8-9.9a8.1,8.1,0,0,1,9.68-4.07,6.14,6.14,0,0,1,5.05,7,5.77,5.77,0,0,1-.26,1.09c-.48,2.46-1.43,4.89-1.67,7.42-.43,5.37-.72,10.69-.78,15.93,0,1.22,1.17,2.46,1.77,3.71a15.24,15.24,0,0,0,2.72-2.78,33.83,33.83,0,0,0,4.26-17.15c.2-5.29.49-10.19.92-15.25a3.58,3.58,0,0,0-2.8-4.15l-.16,0A16.15,16.15,0,0,1,348,113c-1.9-1.89-1.24-3.53,1.63-3.86l.82-.28c8.58-.15,6.43.45,7.21-7.13.23-2.43.18-4.91.47-7.31s1.18-3.81,3.43-3.71,5.23.25,5.88,3.15a9.3,9.3,0,0,1,.46,2.61,55.52,55.52,0,0,1-.35,6.18c-.71,5.46-.36,5.86,5.07,5.68,4-.14,7.93-.12,11.91-.22,2.3,0,4.11.75,4.49,3.28a4.44,4.44,0,0,1-3.15,5.44h0a31.33,31.33,0,0,1-7.14,1c-3.18.18-6.36,0-9.59-.08a2.7,2.7,0,0,0-3.27,2,2.81,2.81,0,0,0-.05,1c-.44,7.52-1.14,15.07-1.37,22.61a50.25,50.25,0,0,0,1,10.08c.48,2.54,2.14,3,3.59,1a24.57,24.57,0,0,0,3.51-7.29,60.29,60.29,0,0,0,2.17-21.64c-.22-3.1.42-3.64,3.35-3.47,5.27.35,7.31,2.66,6.42,8.18a67.43,67.43,0,0,0-1.07,21.26,39.5,39.5,0,0,1,.89,4.59,13.79,13.79,0,0,0,2-2,36.7,36.7,0,0,0,3.43-9c1-7,1.25-14.16,1.76-21.49a2.51,2.51,0,0,1,1.24-1.89,5.72,5.72,0,0,1,7.21,3.66,6,6,0,0,1,.3,2c-.12,4.79-.52,9.52-.06,14.48,1.06-1.52,2-3.2,3.16-4.61a111,111,0,0,1,8.19-8.88,7.23,7.23,0,0,1,9.3.13,8,8,0,0,1,3,8.46c-1,5.58-2.37,11.27-3.39,16.84-.35,2.11-1.37,4.6.95,6.66a5.39,5.39,0,0,0,2.85-5.33,36,36,0,0,1,15.7-29.52c2.14-1.68,7.83.91,7.82,3.68a5.9,5.9,0,0,1-2.42,3.93,36.68,36.68,0,0,0-12.38,21.25,11.47,11.47,0,0,0,.3,5.11c.85,3.3,2.84,3.86,5.75,1.74a6.42,6.42,0,0,0,1.34-1.46A33.07,33.07,0,0,0,447,136.29a5.47,5.47,0,0,1,1.62-4.32c.69-.66,2.77-.3,4,.22a6.82,6.82,0,0,1,4.83,7.75c-.65,11.5-1.43,23-1.48,34.59a45.34,45.34,0,0,1-7.18,28.62,20.72,20.72,0,0,1-27.31,3.32,26.84,26.84,0,0,1-5.35-6,6.52,6.52,0,0,1-.39-4.77c1-3.26,3.46-3.77,6-1.49a94.48,94.48,0,0,0,7.48,6.67,10,10,0,0,0,14.22-.34,10.11,10.11,0,0,0,2.62-5.57,10.92,10.92,0,0,0,.59-3.45c-.18-8.13-.56-16.24-.75-24.41a7.75,7.75,0,0,0-.49-1.4l-2.73,1.9a10.22,10.22,0,0,1-14.54-.93l-.12-.13c-1-1-1.89-2-3.07-.54a5.81,5.81,0,0,1-7.09,2.49,8.06,8.06,0,0,1-6.18-7.34c-.09-6.12.59-12.25,1-18.35.06-1.17.23-2.28.37-3.37l-.72-.58a39,39,0,0,0-4.68,5.87c-3.09,5.83-6.1,11.9-9.1,18-1.47,3.13-3.87,3.61-5.95.89a13.59,13.59,0,0,1-1.24-1.76c-3.2,1.13-6.11,3.4-8.74,3.07s-5.25-3.11-8.18-5a11.81,11.81,0,0,1-9,5.66c-4.53-.19-6.45-3.74-8.34-7.51-1.29,1.6-2.2,3-3.28,4.12a8.28,8.28,0,0,1-11.79.74,8.78,8.78,0,0,1-1.79-2.23,23.9,23.9,0,0,1-2.19-17.66l1-6.72-.83-.34a53.73,53.73,0,0,0-3.66,6c-2.59,5.82-4.82,11.77-7.31,17.55-.57,1.29-1.52,3-2.64,3.32a3.86,3.86,0,0,1-4.66-2.59c-.23-.65-.46-1.3-.81-1.44-2.86,1.53-5.65,4.13-8.43,4.11s-5.65-2.61-9-4.3c-2,1.84-3.95,5.3-8.49,5.12s-6.21-3-7.69-7.27L280,162.29a10.67,10.67,0,0,1-15.19,1.16,11.13,11.13,0,0,1-3.66-6.39,28,28,0,0,1-.07-13.7l1.19-5.38c-2.09,1.21-3.47,2.11-5,2.86-4.38,2.16-9.22,4.33-13.83,6.57a4.84,4.84,0,0,1-6-1.22c-.55-.54-1.16-.95-2.11-1.76a20.56,20.56,0,0,0-1,9.28c.71,9.5,1.54,19,2.37,28.44.29,3.76-.79,4.92-4.48,5.38s-5.89-.65-6.25-4.33c-.82-9.37-1.75-18.75-1.91-28.14a504.2,504.2,0,0,1,2.76-57.9,4.39,4.39,0,0,1,7.55-3.38c.55.39.6,1.72.87,2.47-.23,12.39-.59,24.83-.8,37.27-.08,3.42.37,3.68,3.59,2.61a77.34,77.34,0,0,0,34.52-21.72c4.42-5,8.37-15.41,4.2-22.61a18,18,0,0,0-8.66-7.4,40.29,40.29,0,0,0-27.76-1.47,94,94,0,0,0-26,10.72,5.75,5.75,0,0,1-7.44-3.32,4.72,4.72,0,0,1-.18-.53,2.44,2.44,0,0,1,.94-1.84,75.79,75.79,0,0,1,32.25-14.61,47.45,47.45,0,0,1,23.55.61,35.4,35.4,0,0,1,21,15.85A21.76,21.76,0,0,1,286,107.74a71.18,71.18,0,0,0-2.44,7.69,3.4,3.4,0,0,0,1,2.79c3.35,2.64,3.32,5-.17,7.42a32.41,32.41,0,0,0-15.4,27,9.67,9.67,0,0,0,.16,2.34c1,4.55,4.1,5.55,7.31,2.24a25.45,25.45,0,0,0,4.86-6.51,33.85,33.85,0,0,0,3.76-17.86c-.41-3.93.31-4.81,3.75-4.82s5.82,1.93,5.74,5.35-.9,6.37-1.1,9.62a52,52,0,0,0,0,8.18,8,8,0,0,0,1.63,2.87c.83-.71,2.12-1.26,2.41-2.2A68.5,68.5,0,0,0,300.33,140c.62-6.43.61-12.9.8-19.38.08-3,1.54-4.41,4.46-3.71a14.52,14.52,0,0,1,5.58,2.43,5,5,0,0,1,1.34,3.81c-.43,3.75-1.15,7.55-1.87,11.09a32.58,32.58,0,0,0,.69,15.72,11.24,11.24,0,0,0,1.74,2.47c.71-.61,1.73-1.07,2-1.84a52.32,52.32,0,0,0,2.84-9.92c.68-6.71.83-13.44,1-20.19.12-2,.77-3.09,2.87-3.25,5.42-.39,7.76,2,7.18,7.55-.37,3.36-.51,6.75-.77,10.13Z"/><path class="cls-1" d="M99.69,116.41c.65-1.53,1.34-3.08,1.92-4.64a7.25,7.25,0,0,1,9.85-3.19,7.35,7.35,0,0,1,1.24.81,6,6,0,0,1,.5,4.37c-.88,4.79-2.43,9.46-2.93,14.33a61.41,61.41,0,0,0,.47,12.78c.15,1.15,1.63,2.14,2.53,3.23,1.1-1,2.91-1.8,3.18-2.94a110.84,110.84,0,0,0,1.2-11.22c.61-5.75,1.09-11.55,1.71-17.25a4.8,4.8,0,0,1,5.65-3.81c2.85.36,3.93,1.81,3.68,4.92-.85,9.74-2,19.49-2.37,29.27-.09,7.5.75,15,1,22.78a29,29,0,0,1-9,24,21.17,21.17,0,0,1-29.14-2.19,7.27,7.27,0,0,1-2.23-7.51c1-2.81,2.68-3.35,5-1.77s6,4.61,9.06,6.94a11.87,11.87,0,0,0,16.5-3.86,12.25,12.25,0,0,0,1.62-4.43,100.08,100.08,0,0,0-1-26.88L113,152a8.16,8.16,0,0,1-10.41-5q-.12-.34-.21-.69a129.66,129.66,0,0,1-2-14.95,29.39,29.39,0,0,1,0-4l-.91-.09c-.14,1.35-.3,2.66-.5,4a26.52,26.52,0,0,1-8.54,18.29A14.21,14.21,0,0,1,70.43,147l-.35-.46a35.65,35.65,0,0,1-2.88-7.34A7.33,7.33,0,0,0,66,136.49a8.52,8.52,0,0,0-.39,2.12A179.83,179.83,0,0,1,65,160.26a42.53,42.53,0,0,1-15.38,28.36,28,28,0,0,1-32.41.67A40.32,40.32,0,0,1,1.94,164.34C-2.29,147.61,1,131.68,6,116a4.39,4.39,0,0,1,5.77-3.49l1.7.45c6,1.53,7.16,3.43,4.58,9.24a67.71,67.71,0,0,0-6.45,35.09,48.28,48.28,0,0,0,8.67,23.52,17.3,17.3,0,0,0,24.43,3.08A16.1,16.1,0,0,0,46,182.69a32.71,32.71,0,0,0,9.1-18,128.33,128.33,0,0,0,.67-39.85C54.17,109.74,52.64,95,51.2,80.05c-.59-5.64-.73-11.33-1.28-17-.2-2.49.74-3.76,3.07-4a70.83,70.83,0,0,1,7.43-.21c1.72.07,2.5,1.26,2.37,3.08a356.14,356.14,0,0,0,2.41,55.2c.3,4.07.3,8.19.46,12.31a3.35,3.35,0,0,0,.69,2,76.88,76.88,0,0,1,2.22-9.49,111.74,111.74,0,0,1,5.85-13.64c2-3.74,4.84-4.1,8.61-2.14a4.8,4.8,0,0,0,3.37.54,8.06,8.06,0,0,1,10.45,4.56c.09.24.17.48.25.72l1.53,4.36ZM80.9,120.29a31.63,31.63,0,0,0-3.2,16.78,13.19,13.19,0,0,0,2,5.67,4.49,4.49,0,0,0,6,2.12,4.38,4.38,0,0,0,2-2.07,18.71,18.71,0,0,0,3.65-11.72,3,3,0,0,0-1.31-2.25A12,12,0,0,1,80.9,120.29Z"/><path class="cls-1" d="M174.54,129.9a20.07,20.07,0,0,0,1.62-4.32c2.17-14.9,4.23-29.82,6.4-44.73a34,34,0,0,1,.74-3.75,4.82,4.82,0,0,1,7.3-4A3.87,3.87,0,0,1,194,77.34a3.63,3.63,0,0,1-.16.81c-1.53,5.75-3.06,11.93-4.38,18-1.6,7.19-3,14.46-4.6,22.49,1.64-.58,2.71-.48,3.62-.8a91,91,0,0,1,9.15-3.22c3.05-.7,6.1.37,6.42,3.65.28,1.67-.11,2.75-1.94,3.24l-7.65,2.68c-3.47,1.22-3.49,1.75-2,5.14a212.19,212.19,0,0,1,8.12,19.9,46.69,46.69,0,0,1,.26,30,19.08,19.08,0,0,1-10.35,12.71,8.7,8.7,0,0,1-11.67-4,9,9,0,0,1-.64-1.76A77.69,77.69,0,0,1,174.53,158c0-5.22.4-10.57.45-16.12,0-1.26-.11-2.52-.15-3.81l-.84-.49a11.43,11.43,0,0,0-1.93,2.4c-1.13,2.8-1.85,5.87-3.2,8.48a13.81,13.81,0,0,1-18.55,6.79A14,14,0,0,1,146,152a18.14,18.14,0,0,1-4.56-14,53.82,53.82,0,0,1,8-25.78,6.54,6.54,0,0,1,8.94-2.68,6.7,6.7,0,0,1,2.44,2.29,3.79,3.79,0,0,0,2.68,1,8.18,8.18,0,0,1,8.53,7.18l1.64,9.5Zm9.49,1.27c-.46,1.46-.7,2-.78,2.46a135.1,135.1,0,0,0,.29,36.43,49.44,49.44,0,0,0,2.57,10.52c1.19,3.4,4.15,3.77,6.07,1.06a21.63,21.63,0,0,0,3.37-8.44,60.2,60.2,0,0,0-6.19-32.27c-1.52-3.17-3.24-6.16-5.15-9.83Zm-28.2-7.12a25.13,25.13,0,0,0-3.67,14.44,23,23,0,0,0,1.5,8.24,4.52,4.52,0,0,0,5.59,3.05,4.32,4.32,0,0,0,2.2-1.51,27.76,27.76,0,0,0,3.66-8.64c.16-.42-.92-1.71-1.64-2a13.13,13.13,0,0,1-7-10.59c-.25-.85-.39-1.69-.67-2.94Zm9.43-.8a5.67,5.67,0,0,0,.66,7.9l.23.19Z"/><path class="cls-1" d="M109,84.82c-1.55,2.32-2.85,4-3.94,5.92-2.86,5-5.85,5.14-8.89,0A18,18,0,0,0,94.68,92a5.78,5.78,0,0,1-8.17,1.08,6,6,0,0,1-2-2.74,59.32,59.32,0,0,1-1.89-12.7c-.1-1.89-.18-3-2.17-3.83-.83-.33-1.45-1.94-1.64-3.08-.12-.32,1.58-.92,2.33-1.55A7.27,7.27,0,0,0,83.23,67a12.39,12.39,0,0,0,.49-3.15A4,4,0,0,1,87.93,60l.42,0c2.51.42,2.29,2.43,2.36,4.39s-1.46,3.9,1.63,4.64c2,.43,3.44-.16,3.64-2.52l1-11.35c.13-1.82-.42-4,2.4-4.13a4.92,4.92,0,0,1,5.53,4.18.91.91,0,0,1,0,.23,37.13,37.13,0,0,1-.57,5l-2.4,21.72,1,.39,2-2.12a39.51,39.51,0,0,1,5.38-5.59,4.48,4.48,0,0,1,4.22-.28,5,5,0,0,1,1.71,3.83c.06,3.11-.3,6.16-.55,9.43,3.29,0,3.65-2.06,4-4.12a15.56,15.56,0,0,1,7.45-11.28,7.75,7.75,0,0,1,1.33-.46,6.29,6.29,0,0,1,7.88,1.67,6.19,6.19,0,0,1-2.41,7.78c-1.89,1.5-4.2,2.68-5.93,4.17-.74.68-1,2-1.4,3.05,1.14.33,2.45,1.28,3.31.93,1.87-.66,3.31-2.26,5.09-3.2a8.6,8.6,0,0,1,3.07-.35c-.17,1,0,2.35-.56,3A36.72,36.72,0,0,1,132,94.08a6.94,6.94,0,0,1-8.9-.32,3.81,3.81,0,0,0-5-.4,4.85,4.85,0,0,1-6.68-1.72,6,6,0,0,1-.35-.72C110.32,89.15,109.87,87.42,109,84.82ZM91.33,86.89a15.68,15.68,0,0,0,4.33-11.7c-.21-.6-1-1.54-1.41-1.54a7.19,7.19,0,0,0-4.07.86C88.86,76.17,89.73,85.1,91.33,86.89Z"/><path class="cls-1" d="M309.26,91.23a4,4,0,0,1-5-2.62,5,5,0,0,1-.17-.77,32.55,32.55,0,0,1,.69-8.59,3,3,0,0,1,2.41-1.63,23.49,23.49,0,0,1,5.74.23,3.14,3.14,0,0,1,2,1.69A9.77,9.77,0,0,1,309.26,91.23Z"/><path class="cls-1" d="M382.57,94.31c-1.55-.29-3.59-.1-4.42-1A9.6,9.6,0,0,1,377,88.49c-.25-.69.38-1.54.54-2.27,1.32-5.32,3.54-6.46,8.59-4.79a3.31,3.31,0,0,1,1.86,1.9A12.41,12.41,0,0,1,382.57,94.31Z"/><path class="cls-1" d="M11.3,4A1.22,1.22,0,0,0,10.76,3a2.1,2.1,0,0,0-1.18-.36A8.53,8.53,0,0,0,4.89,4,5.61,5.61,0,0,0,3.34,5.56a3.57,3.57,0,0,0-.58,2A2.91,2.91,0,0,0,3,8.7a1.77,1.77,0,0,0,.45.65,1.16,1.16,0,0,0,.52.28,1.7,1.7,0,0,0,.38,0,2,2,0,0,0,.94-.19,6.8,6.8,0,0,0,.66-.41l.57-.42a1,1,0,0,1,.6-.19,1.63,1.63,0,0,1,.59.12A1.59,1.59,0,0,1,8.23,9a2.11,2.11,0,0,1,.45.72,2.93,2.93,0,0,1,.18,1.09,3.26,3.26,0,0,1-.35,1.58,3.61,3.61,0,0,1-.92,1.12,3.84,3.84,0,0,1-1.29.66,4.78,4.78,0,0,1-1.43.22,5,5,0,0,1-2-.38,4.48,4.48,0,0,1-1.51-1,4.75,4.75,0,0,1-.94-1.56A5.76,5.76,0,0,1,.12,9.5,7.42,7.42,0,0,1,1.57,4.78,9.69,9.69,0,0,1,5.5,1.87,21.37,21.37,0,0,1,11.31.4a58.24,58.24,0,0,1,7-.4,32.25,32.25,0,0,1,7.73.86A15.42,15.42,0,0,1,32,3.65a12.45,12.45,0,0,1,3.78,5,19.19,19.19,0,0,1,1.33,7.58,20.94,20.94,0,0,1-1.41,7.94A16.67,16.67,0,0,1,31.85,30a16.44,16.44,0,0,1-5.74,3.58,20,20,0,0,1-7.06,1.23,26.89,26.89,0,0,1-4-.24,5.6,5.6,0,0,1-2.36-.83,2.82,2.82,0,0,1-1.1-1.56,9.43,9.43,0,0,1-.27-2.47ZM18.87,30a2.48,2.48,0,0,0,.59,1.87,2.4,2.4,0,0,0,1.73.56,6.78,6.78,0,0,0,3.18-.76A6.37,6.37,0,0,0,26.88,29a16.41,16.41,0,0,0,1.65-4.92,41.47,41.47,0,0,0,.6-7.74,33.7,33.7,0,0,0-.38-5.4,19.78,19.78,0,0,0-1-3.88,9.77,9.77,0,0,0-1.41-2.59,7.34,7.34,0,0,0-1.62-1.56,4.93,4.93,0,0,0-1.62-.76A5.89,5.89,0,0,0,21.69,2a3,3,0,0,0-2.15.67A3.32,3.32,0,0,0,18.87,5Z"/><path class="cls-1" d="M49.19,32.24a3.23,3.23,0,0,1-.11.73,1.74,1.74,0,0,1-.48.8,3,3,0,0,1-1.09.64,5.58,5.58,0,0,1-1.93.27,5.09,5.09,0,0,1-1.9-.29,2.67,2.67,0,0,1-1-.68,1.71,1.71,0,0,1-.43-.8,4.09,4.09,0,0,1-.08-.67V14.53a2.1,2.1,0,0,0-.31-1.16,1.13,1.13,0,0,0-1-.5,1.51,1.51,0,0,0-.67.14,3.75,3.75,0,0,0-.6.39L39,12.83A12.87,12.87,0,0,1,40.22,12a10,10,0,0,1,1.42-.75,10.61,10.61,0,0,1,1.62-.53,8.5,8.5,0,0,1,1.84-.2,5.4,5.4,0,0,1,2.32.4,3,3,0,0,1,1.21,1,2.91,2.91,0,0,1,.48,1.25,10.61,10.61,0,0,1,.08,1.17Zm-7.76-27A2.65,2.65,0,0,1,41.72,4a3,3,0,0,1,.8-1,4,4,0,0,1,1.19-.69,4.18,4.18,0,0,1,1.48-.25,4.11,4.11,0,0,1,1.46.25A3.94,3.94,0,0,1,47.83,3a3.12,3.12,0,0,1,.79,1,2.78,2.78,0,0,1,.29,1.23,2.72,2.72,0,0,1-.29,1.23,3,3,0,0,1-.79,1,3.92,3.92,0,0,1-1.18.68,4.11,4.11,0,0,1-1.46.25,4.18,4.18,0,0,1-1.48-.25,4,4,0,0,1-1.19-.68,2.86,2.86,0,0,1-.8-1A2.59,2.59,0,0,1,41.43,5.26Z"/><path class="cls-1" d="M62.34,12.32a3.55,3.55,0,0,0-1,.14,2.14,2.14,0,0,0-.84.45,2,2,0,0,0-.57.78,2.68,2.68,0,0,0-.21,1.11,3,3,0,0,0,.65,1.78A16.21,16.21,0,0,0,62,18.42c.65.63,1.36,1.29,2.11,2a24,24,0,0,1,2.12,2.16A11.9,11.9,0,0,1,67.85,25a5.93,5.93,0,0,1,.66,2.75A7.38,7.38,0,0,1,68,30.66a6,6,0,0,1-1.61,2.18,7.29,7.29,0,0,1-2.52,1.37,11,11,0,0,1-3.3.47,8.68,8.68,0,0,1-2.87-.45,11,11,0,0,1-2.28-1.1,9.83,9.83,0,0,1-1.71-1.39,9.45,9.45,0,0,1-1.1-1.33l.8-.58a7.75,7.75,0,0,0,.76.75,7.9,7.9,0,0,0,1,.75,6.35,6.35,0,0,0,1.21.56,4.13,4.13,0,0,0,1.3.22,4.36,4.36,0,0,0,2.71-.8A2.73,2.73,0,0,0,61.42,29a3.38,3.38,0,0,0-.58-1.8,14.11,14.11,0,0,0-1.44-1.92c-.58-.65-1.21-1.33-1.88-2A27.56,27.56,0,0,1,55.63,21a12.69,12.69,0,0,1-1.44-2.32,5.66,5.66,0,0,1-.58-2.47,5.22,5.22,0,0,1,.59-2.53,5.38,5.38,0,0,1,1.56-1.79A7.09,7.09,0,0,1,58,10.84a9.62,9.62,0,0,1,2.58-.35,13.44,13.44,0,0,1,2.8.27,7.22,7.22,0,0,1,2.17.84A4.19,4.19,0,0,1,66.94,13a3.88,3.88,0,0,1,.49,2,2.2,2.2,0,0,1-.57,1.51,2.05,2.05,0,0,1-1.61.64,2.31,2.31,0,0,1-1.5-.42,1.4,1.4,0,0,1-.52-1.16,1.14,1.14,0,0,1,.24-.76,2.31,2.31,0,0,1,.54-.45l.54-.29a.39.39,0,0,0,.24-.34,1.15,1.15,0,0,0-.69-1A3.67,3.67,0,0,0,62.34,12.32Z"/><path class="cls-1" d="M87.35,18.43a2.81,2.81,0,0,1-1.19-.22,2.21,2.21,0,0,1-.78-.58,2.42,2.42,0,0,1-.44-.82,3.22,3.22,0,0,1-.14-.93,9.14,9.14,0,0,1,.08-1.19,4.11,4.11,0,0,0,0-1,1.16,1.16,0,0,0-.36-.73,1.59,1.59,0,0,0-1.06-.27,3.75,3.75,0,0,0-1.69.45,4.79,4.79,0,0,0-1.63,1.45A8.35,8.35,0,0,0,79,17.09a12.64,12.64,0,0,0-.48,3.72,19.91,19.91,0,0,0,.45,4.4,10.26,10.26,0,0,0,1.34,3.38,6.47,6.47,0,0,0,2.22,2.17,6.08,6.08,0,0,0,3.13.77,6.27,6.27,0,0,0,1.52-.18,6.43,6.43,0,0,0,1.37-.51,8.54,8.54,0,0,0,1.23-.74c.39-.29.76-.59,1.13-.91l.58.55a15.7,15.7,0,0,1-1.36,1.56,11,11,0,0,1-2,1.6,11.45,11.45,0,0,1-2.73,1.24,11.72,11.72,0,0,1-3.55.49,10.3,10.3,0,0,1-3.89-.77,10,10,0,0,1-3.37-2.24,10.88,10.88,0,0,1-2.35-3.56,12.25,12.25,0,0,1-.88-4.79,13,13,0,0,1,.53-3.84,12.79,12.79,0,0,1,1.43-3.18,11.9,11.9,0,0,1,2.11-2.5,13.91,13.91,0,0,1,2.54-1.81,12.57,12.57,0,0,1,2.72-1.09,10.56,10.56,0,0,1,2.67-.36,10.06,10.06,0,0,1,3,.39,6.64,6.64,0,0,1,2.1,1,4.15,4.15,0,0,1,1.25,1.48A3.84,3.84,0,0,1,90,15.12a4.5,4.5,0,0,1-.18,1.28,3.19,3.19,0,0,1-.5,1.05,2.31,2.31,0,0,1-.84.71A2.46,2.46,0,0,1,87.35,18.43Z"/><path class="cls-1" d="M93.06,22.56a14.44,14.44,0,0,1,.88-5.27,11.05,11.05,0,0,1,2.33-3.77,9.38,9.38,0,0,1,3.38-2.27,10.86,10.86,0,0,1,4-.76,11.68,11.68,0,0,1,4,.7,9.18,9.18,0,0,1,3.38,2.14A10.46,10.46,0,0,1,113.44,17a14.35,14.35,0,0,1,.88,5.25,15.06,15.06,0,0,1-.88,5.32,11.57,11.57,0,0,1-2.33,3.9,9.6,9.6,0,0,1-3.38,2.4,10.35,10.35,0,0,1-4,.82,10.87,10.87,0,0,1-4-.77,9.56,9.56,0,0,1-3.38-2.29,11,11,0,0,1-2.33-3.78A14.54,14.54,0,0,1,93.06,22.56Zm14.12-.23c0-1.22,0-2.41-.13-3.55a16,16,0,0,0-.49-3,5.48,5.48,0,0,0-1.06-2.12,2.27,2.27,0,0,0-1.81-.79,2.22,2.22,0,0,0-1.81.84,5.86,5.86,0,0,0-1.06,2.2,16.81,16.81,0,0,0-.48,3.11c-.08,1.16-.12,2.36-.12,3.58s0,2.42.12,3.59a16.9,16.9,0,0,0,.48,3.13,5.89,5.89,0,0,0,1.06,2.22,2.33,2.33,0,0,0,3.62,0,6.17,6.17,0,0,0,1.06-2.29,18.07,18.07,0,0,0,.49-3.21C107.14,24.76,107.18,23.55,107.18,22.33Z"/><path class="cls-1" d="M118,14.8a3.77,3.77,0,0,0-.45-1.42,1.13,1.13,0,0,0-1-.51,1.59,1.59,0,0,0-.68.14,3.08,3.08,0,0,0-.61.39l-.46-.57a12.87,12.87,0,0,1,1.18-.86,10.49,10.49,0,0,1,1.41-.75,11.11,11.11,0,0,1,1.63-.53,8.5,8.5,0,0,1,1.84-.2A4.64,4.64,0,0,1,123,11a3.93,3.93,0,0,1,1.34,1.17,4.66,4.66,0,0,1,.7,1.5,13,13,0,0,1,.3,1.45,69.71,69.71,0,0,0,1.9,10.53q1.06,3.59,2.5,3.58a2.08,2.08,0,0,0,1.55-.87,7.72,7.72,0,0,0,1.31-2.39,19.22,19.22,0,0,0,.91-3.53,25.74,25.74,0,0,0,.34-4.32,13.27,13.27,0,0,0-.21-2.56,12.9,12.9,0,0,0-.45-1.75c-.17-.47-.33-.87-.46-1.18a2.11,2.11,0,0,1-.21-.84.69.69,0,0,1,.28-.57,2.2,2.2,0,0,1,.65-.39,3,3,0,0,1,.78-.23,3.7,3.7,0,0,1,.65-.07,2,2,0,0,1,1,.18,1.27,1.27,0,0,1,.48.71,8.44,8.44,0,0,1,.29,1.76c.05.73.08,1.5.08,2.33a34.58,34.58,0,0,1-.24,3.88,40.08,40.08,0,0,1-.74,4.24,31.33,31.33,0,0,1-1.25,4.13,16.86,16.86,0,0,1-1.8,3.55,9.52,9.52,0,0,1-2.36,2.48,5,5,0,0,1-2.95.93,5.17,5.17,0,0,1-3.31-1.11,9.35,9.35,0,0,1-2.37-2.86,19.84,19.84,0,0,1-1.62-4,44.22,44.22,0,0,1-1-4.42c-.26-1.48-.48-2.88-.64-4.2S118.11,15.69,118,14.8Z"/><path class="cls-1" d="M146.49,23.78a6.25,6.25,0,0,0,.22,1.59,8.84,8.84,0,0,0,.63,1.73,9.34,9.34,0,0,0,1,1.67,8.12,8.12,0,0,0,1.4,1.41,6.89,6.89,0,0,0,1.76,1,6.32,6.32,0,0,0,3.6.18,5.35,5.35,0,0,0,1.28-.51,8.31,8.31,0,0,0,1.15-.74c.37-.29.74-.59,1.1-.91l.58.55a15.7,15.7,0,0,1-1.36,1.56,11,11,0,0,1-2,1.6,11.45,11.45,0,0,1-2.73,1.24,11.83,11.83,0,0,1-3.56.49,10.85,10.85,0,0,1-3.89-.72,9.71,9.71,0,0,1-3.36-2.17,10.78,10.78,0,0,1-2.36-3.6,13.48,13.48,0,0,1-.88-5.05,13.3,13.3,0,0,1,.53-3.84,11.92,11.92,0,0,1,3.54-5.6,13.55,13.55,0,0,1,2.54-1.75,12.46,12.46,0,0,1,2.72-1.06,11.07,11.07,0,0,1,2.67-.35,10.85,10.85,0,0,1,3,.36,6.83,6.83,0,0,1,2.1,1,4,4,0,0,1,1.25,1.44,3.66,3.66,0,0,1,.42,1.71,3.27,3.27,0,0,1-.62,1.94,6,6,0,0,1-1.65,1.5Zm4.61-4.66a3.84,3.84,0,0,0,.5-.36,1.27,1.27,0,0,0,.31-.41,2.55,2.55,0,0,0,.17-.6,5.44,5.44,0,0,0,.06-.88,7.81,7.81,0,0,0-.13-1.28,5.1,5.1,0,0,0-.43-1.32,3.3,3.3,0,0,0-.75-1,1.63,1.63,0,0,0-1.1-.41,2.13,2.13,0,0,0-1.42.49,3.81,3.81,0,0,0-1,1.28,8.35,8.35,0,0,0-.6,1.77q-.21,1-.33,2c-.08.68-.12,1.32-.14,1.94s0,1.15,0,1.57Z"/><path class="cls-1" d="M169.65,15.33a19.37,19.37,0,0,1,1.85-2.41,12.62,12.62,0,0,1,.9-.89,6.59,6.59,0,0,1,1-.78,5.21,5.21,0,0,1,1.07-.56,3.24,3.24,0,0,1,1.1-.2,2.38,2.38,0,0,1,1.83.7,2.69,2.69,0,0,1,.67,2,8.13,8.13,0,0,1-.13,1.5,11,11,0,0,1-.49,1.76h-.64a2.12,2.12,0,0,0-.65-1.18,2,2,0,0,0-1.47-.47,3.81,3.81,0,0,0-1.4.26,9.7,9.7,0,0,0-1.34.65,13.56,13.56,0,0,0-1.24.85c-.39.31-.74.6-1.06.88V32.29a2.87,2.87,0,0,1-.1.71,1.62,1.62,0,0,1-.44.78,2.73,2.73,0,0,1-1.06.63,5.48,5.48,0,0,1-1.92.27,5.18,5.18,0,0,1-1.91-.29,3,3,0,0,1-1.07-.68,1.79,1.79,0,0,1-.46-.8,3.35,3.35,0,0,1-.09-.67V14.53a2.1,2.1,0,0,0-.31-1.16,1.13,1.13,0,0,0-1-.5,1.51,1.51,0,0,0-.67.14,3.75,3.75,0,0,0-.6.39l-.48-.57a12.87,12.87,0,0,1,1.18-.86,10,10,0,0,1,1.42-.75,10.38,10.38,0,0,1,1.63-.53,8.34,8.34,0,0,1,1.83-.2,5,5,0,0,1,1.69.26,3.59,3.59,0,0,1,1.15.69,3.39,3.39,0,0,1,.7,1,5.43,5.43,0,0,1,.37,1.07,4.84,4.84,0,0,1,.15,1Q169.65,15,169.65,15.33Z"/></g></g></svg>