<svg xmlns="http://www.w3.org/2000/svg" width="457.66" height="165.8" viewBox="0 0 457.66 165.8"><defs><style>.cls-1{fill:#fff;}</style></defs><title>logosAsset 1</title><g id="Layer_2" data-name="Layer 2"><g id="Layer_1-2" data-name="Layer 1"><path class="cls-1" d="M329.13,88.46c2.3-3.25,4.41-6.63,7-9.77a8.11,8.11,0,0,1,9.76-3.87,6.14,6.14,0,0,1,4.91,7.08,5.84,5.84,0,0,1-.29,1.09c-.52,2.45-1.52,4.85-1.81,7.38-.54,5.36-.94,10.68-1.1,15.91-.07,1.22,1.12,2.49,1.69,3.75a15.61,15.61,0,0,0,2.78-2.73,33.81,33.81,0,0,0,4.6-17.06C357,85,357.36,80.07,357.9,75a3.57,3.57,0,0,0-2.72-4.21l-.15,0A16.21,16.21,0,0,1,348.67,67c-1.86-1.93-1.17-3.56,1.7-3.83l.83-.27c8.59,0,6.42.59,7.36-7,.27-2.42.27-4.91.61-7.3s1.26-3.78,3.5-3.63,5.23.35,5.83,3.27a9.6,9.6,0,0,1,.4,2.61,52.89,52.89,0,0,1-.48,6.17c-.81,5.45-.48,5.86,5,5.78,4-.06,7.93,0,11.91,0,2.3,0,4.1.83,4.42,3.37a4.43,4.43,0,0,1-3.25,5.37h0a31.89,31.89,0,0,1-7.15.9c-3.18.11-6.36-.09-9.59-.28a2.7,2.7,0,0,0-3.31,2,2.88,2.88,0,0,0-.07,1c-.6,7.5-1.44,15-1.82,22.57a48.9,48.9,0,0,0,.81,10.1c.43,2.55,2.07,3,3.56,1.06a24.41,24.41,0,0,0,3.66-7.21A60.17,60.17,0,0,0,375.12,80c-.15-3.11.49-3.64,3.42-3.41,5.26.45,7.25,2.8,6.26,8.31a67.32,67.32,0,0,0-1.51,21.23,39,39,0,0,1,.8,4.61,13.31,13.31,0,0,0,2-2,36.54,36.54,0,0,0,3.61-8.91c1.12-7,1.54-14.13,2.2-21.45a2.55,2.55,0,0,1,1.27-1.87,5.73,5.73,0,0,1,7.14,3.82,5.92,5.92,0,0,1,.25,2c-.21,4.79-.7,9.51-.35,14.47,1.09-1.5,2-3.15,3.26-4.54a109.26,109.26,0,0,1,8.37-8.71,7.21,7.21,0,0,1,9.29.32,8,8,0,0,1,2.8,8.51c-1.14,5.55-2.6,11.22-3.73,16.77-.39,2.1-1.46,4.58.81,6.68a5.42,5.42,0,0,0,3-5.28,36,36,0,0,1,16.3-29.19c2.16-1.64,7.8,1.07,7.74,3.83a5.9,5.9,0,0,1-2.5,3.88,36.72,36.72,0,0,0-12.81,21,11.5,11.5,0,0,0,.2,5.12c.78,3.32,2.76,3.91,5.71,1.85a6.2,6.2,0,0,0,1.37-1.43,33.08,33.08,0,0,0,7.19-23.5,5.47,5.47,0,0,1,1.7-4.3c.71-.64,2.78-.24,4,.3a6.81,6.81,0,0,1,4.67,7.85c-.87,11.48-1.89,23-2.18,34.56a45.33,45.33,0,0,1-7.75,28.46,20.7,20.7,0,0,1-27.37,2.77,26.83,26.83,0,0,1-5.23-6.11,6.48,6.48,0,0,1-.29-4.78c1-3.24,3.53-3.7,6-1.36a92.85,92.85,0,0,0,7.34,6.82,10,10,0,0,0,14.22,0,10.1,10.1,0,0,0,2.74-5.52,11.16,11.16,0,0,0,.66-3.43c0-8.13-.23-16.25-.27-24.43a6.38,6.38,0,0,0-.46-1.4l-2.76,1.84a10.24,10.24,0,0,1-14.53-1.22.76.76,0,0,0-.11-.14c-1-1-1.84-2-3.06-.61a5.79,5.79,0,0,1-7.14,2.35,8,8,0,0,1-6-7.45c0-6.13.83-12.25,1.38-18.34.08-1.16.28-2.26.43-3.35l-.71-.6a38.93,38.93,0,0,0-4.79,5.77c-3.21,5.77-6.34,11.78-9.46,17.83-1.54,3.09-3.95,3.52-6,.77a14.15,14.15,0,0,1-1.19-1.78c-3.23,1.06-6.18,3.27-8.81,2.89s-5.19-3.22-8.08-5.17a11.78,11.78,0,0,1-9.07,5.46c-4.53-.27-6.38-3.86-8.19-7.67-1.32,1.57-2.26,2.92-3.36,4.06a8.28,8.28,0,0,1-11.8.5,8.57,8.57,0,0,1-1.75-2.27,23.85,23.85,0,0,1-1.83-17.7l1.16-6.7-.82-.35a52.74,52.74,0,0,0-3.78,5.9C332,101.4,329.65,107.31,327,113c-.6,1.28-1.58,2.95-2.7,3.27a3.88,3.88,0,0,1-4.61-2.69c-.21-.65-.43-1.31-.78-1.45-2.89,1.47-5.73,4-8.51,3.93s-5.59-2.72-8.93-4.48c-2,1.81-4.05,5.22-8.58,4.95s-6.15-3.16-7.54-7.42l-5.69,5.7a10.68,10.68,0,0,1-15.22.85,11.09,11.09,0,0,1-3.52-6.46,27.94,27.94,0,0,1,.2-13.69l1.31-5.36c-2.12,1.17-3.52,2-5.07,2.76-4.43,2.07-9.31,4.14-14,6.29a4.83,4.83,0,0,1-6-1.34c-.54-.55-1.14-1-2.08-1.81a20.53,20.53,0,0,0-1.19,9.26c.52,9.52,1.15,19.05,1.8,28.48.21,3.76-.89,4.91-4.59,5.29s-5.87-.77-6.16-4.45c-.64-9.38-1.37-18.78-1.34-28.17a505.53,505.53,0,0,1,3.92-57.83,4.39,4.39,0,0,1,7.62-3.23c.54.39.57,1.73.82,2.48-.48,12.38-1.09,24.82-1.55,37.25-.16,3.42.29,3.69,3.53,2.68a77.36,77.36,0,0,0,35-21c4.52-4.91,8.68-15.24,4.65-22.52a18,18,0,0,0-8.51-7.57,40.3,40.3,0,0,0-27.72-2,94,94,0,0,0-26.16,10.2,5.76,5.76,0,0,1-7.38-3.47,4.64,4.64,0,0,1-.16-.53,2.44,2.44,0,0,1,1-1.83A75.91,75.91,0,0,1,241.4,25.12a47.42,47.42,0,0,1,23.53,1.09,35.4,35.4,0,0,1,20.66,16.27,21.71,21.71,0,0,1,1.2,18,75.55,75.55,0,0,0-2.59,7.64,3.37,3.37,0,0,0,.92,2.8c3.29,2.71,3.21,5.12-.32,7.42A32.38,32.38,0,0,0,268.86,105a10.29,10.29,0,0,0,.1,2.35c.94,4.56,4,5.63,7.27,2.38a25.32,25.32,0,0,0,5-6.41,33.8,33.8,0,0,0,4.12-17.78c-.33-3.94.41-4.8,3.85-4.74s5.78,2,5.62,5.46-1,6.35-1.28,9.6a52,52,0,0,0-.13,8.18,8,8,0,0,0,1.57,2.9c.85-.69,2.15-1.22,2.46-2.15a68.92,68.92,0,0,0,3-11.77c.75-6.42.88-12.89,1.2-19.37.14-3,1.63-4.37,4.53-3.61a14.6,14.6,0,0,1,5.53,2.54A5,5,0,0,1,313,76.4c-.51,3.75-1.3,7.53-2.09,11a32.5,32.5,0,0,0,.37,15.74,11.22,11.22,0,0,0,1.69,2.5c.72-.6,1.75-1,2-1.8A51.15,51.15,0,0,0,318,94c.82-6.69,1.11-13.42,1.45-20.16.15-2,.83-3.08,2.93-3.2,5.42-.27,7.71,2.19,7,7.7-.43,3.35-.64,6.74-1,10.11Z"/><path class="cls-1" d="M100.33,65.34c.68-1.52,1.4-3.05,2-4.6a7.26,7.26,0,0,1,9.92-3,7.78,7.78,0,0,1,1.22.84A6.07,6.07,0,0,1,113.9,63c-1,4.78-2.63,9.41-3.23,14.28A61.37,61.37,0,0,0,110.89,90c.12,1.15,1.58,2.17,2.46,3.28,1.12-.93,2.94-1.74,3.24-2.87A110.92,110.92,0,0,0,118,79.23c.73-5.73,1.32-11.53,2.06-17.21a4.81,4.81,0,0,1,5.73-3.69c2.84.41,3.89,1.88,3.58,5-1,9.72-2.39,19.44-3,29.22-.25,7.49.44,15,.49,22.79a29,29,0,0,1-9.47,23.85,21.2,21.2,0,0,1-29.1-2.78,7.29,7.29,0,0,1-2.07-7.56c1.07-2.79,2.75-3.29,5.07-1.67s5.94,4.73,8.92,7.12a11.86,11.86,0,0,0,16.58-3.53,12.25,12.25,0,0,0,1.7-4.39,100.16,100.16,0,0,0-.46-26.9L113,101.15A8.15,8.15,0,0,1,102.66,96a5,5,0,0,1-.2-.69,125.55,125.55,0,0,1-1.71-15,29.36,29.36,0,0,1,.12-4l-.9-.12c-.17,1.35-.36,2.66-.59,4a26.47,26.47,0,0,1-8.91,18.11,14.21,14.21,0,0,1-20-2.9l-.34-.47a35.54,35.54,0,0,1-2.73-7.4,7.39,7.39,0,0,0-1.17-2.77,8.89,8.89,0,0,0-.43,2.11,181.6,181.6,0,0,1-1,21.63,42.48,42.48,0,0,1-16,28,28,28,0,0,1-32.41,0A40.32,40.32,0,0,1,1.63,111.29c-3.89-16.81-.26-32.67,5-48.29a4.36,4.36,0,0,1,5.84-3.37l1.69.48c6,1.65,7.09,3.58,4.39,9.34a67.7,67.7,0,0,0-7.16,34.94,48.37,48.37,0,0,0,8.19,23.69A17.31,17.31,0,0,0,44,131.66q.7-.54,1.35-1.14a32.68,32.68,0,0,0,9.46-17.82,128.2,128.2,0,0,0,1.47-39.82C55,57.75,53.73,43,52.59,28c-.48-5.65-.51-11.34-.94-17-.15-2.49.81-3.74,3.15-3.93A70.81,70.81,0,0,1,62.23,7c1.72.11,2.48,1.31,2.31,3.13a356.39,356.39,0,0,0,1.29,55.24c.22,4.07.14,8.19.22,12.31a3.31,3.31,0,0,0,.64,2,76.55,76.55,0,0,1,2.42-9.45,112.56,112.56,0,0,1,6.12-13.52c2.11-3.7,4.92-4,8.65-2a4.84,4.84,0,0,0,3.36.61,8,8,0,0,1,10.35,4.77q.14.35.24.72l1.44,4.39Zm-18.86,3.5a31.64,31.64,0,0,0-3.55,16.72,13.13,13.13,0,0,0,1.88,5.7,4.47,4.47,0,0,0,5.94,2.24,4.38,4.38,0,0,0,2.09-2,18.72,18.72,0,0,0,3.89-11.64,3,3,0,0,0-1.26-2.28A12,12,0,0,1,81.47,68.84Z"/><path class="cls-1" d="M174.89,80.34a19.7,19.7,0,0,0,1.71-4.29c2.47-14.85,4.83-29.73,7.31-44.58a31.51,31.51,0,0,1,.81-3.74,4.81,4.81,0,0,1,7.37-3.82,3.86,3.86,0,0,1,3.33,4.28,3.7,3.7,0,0,1-.18.8c-1.64,5.72-3.3,11.86-4.74,17.88-1.74,7.15-3.29,14.4-5.05,22.39,1.65-.54,2.71-.43,3.64-.73,3.13-1,6.16-2.38,9.21-3s6.09.49,6.35,3.78c.24,1.68-.17,2.75-2,3.2L194.94,75c-3.5,1.16-3.53,1.68-2.1,5.1a214.35,214.35,0,0,1,7.71,20.06,46.68,46.68,0,0,1-.35,30,19.05,19.05,0,0,1-10.6,12.5A8.72,8.72,0,0,1,178,138.41a9.35,9.35,0,0,1-.61-1.78,78,78,0,0,1-3.09-28.21c.13-5.22.62-10.57.79-16.12,0-1.26-.07-2.52-.08-3.81l-.83-.5a11.49,11.49,0,0,0-2,2.36c-1.19,2.77-2,5.83-3.37,8.41a13.81,13.81,0,0,1-18.68,6.42,14.26,14.26,0,0,1-4.28-3.28,18.17,18.17,0,0,1-4.27-14.1,53.66,53.66,0,0,1,8.54-25.6,6.53,6.53,0,0,1,9-2.5A6.75,6.75,0,0,1,161.53,62a3.76,3.76,0,0,0,2.66,1.1,8.18,8.18,0,0,1,8.38,7.35L174,80Zm9.47,1.46c-.49,1.45-.74,2-.83,2.45a134.19,134.19,0,0,0-.44,36.42,49.19,49.19,0,0,0,2.35,10.58c1.12,3.41,4.07,3.84,6.05,1.17a21.53,21.53,0,0,0,3.53-8.36,60.21,60.21,0,0,0-5.53-32.39c-1.46-3.2-3.12-6.23-5-9.93Zm-28.05-7.69a25.1,25.1,0,0,0-4,14.37,22.79,22.79,0,0,0,1.33,8.26,4.51,4.51,0,0,0,5.52,3.17,4.38,4.38,0,0,0,2.24-1.46,27.65,27.65,0,0,0,3.82-8.57c.17-.42-.87-1.73-1.59-2.06a13.13,13.13,0,0,1-6.79-10.73c-.23-.86-.36-1.7-.62-3Zm9.44-.61a5.66,5.66,0,0,0,.5,7.91l.23.2Z"/><path class="cls-1" d="M110.24,34c-1.6,2.28-2.94,4-4.06,5.84-3,5-6,5-8.89-.19-.52.43-1,.8-1.48,1.26a5.77,5.77,0,0,1-8.18.92A6,6,0,0,1,85.71,39a59.51,59.51,0,0,1-1.63-12.73c-.06-1.9-.13-3-2.09-3.88-.83-.35-1.41-2-1.58-3.11-.11-.32,1.59-.88,2.36-1.5a7.42,7.42,0,0,0,2.11-2.14,13.34,13.34,0,0,0,.55-3.14,4,4,0,0,1,4.28-3.77l.42,0c2.5.48,2.24,2.48,2.27,4.44s-1.53,3.87,1.54,4.68c2,.47,3.44-.1,3.68-2.46L98.81,4.12C99,2.3,98.47.14,101.29,0a4.92,4.92,0,0,1,5.45,4.29,1.64,1.64,0,0,1,0,.23,37.35,37.35,0,0,1-.67,4.94l-2.84,21.66,1,.42,2.07-2.08a40.19,40.19,0,0,1,5.5-5.49,4.53,4.53,0,0,1,4.23-.19,5,5,0,0,1,1.63,3.87c0,3.11-.43,6.15-.74,9.41,3.29.06,3.69-2,4.08-4a15.57,15.57,0,0,1,7.68-11.12A7,7,0,0,1,130,21.5a6.3,6.3,0,0,1,7.85,1.83,6.19,6.19,0,0,1-2.56,7.73c-1.92,1.46-4.26,2.59-6,4.05-.75.66-1,2-1.45,3,1.13.35,2.42,1.33,3.28,1,1.89-.62,3.37-2.19,5.16-3.09a8.64,8.64,0,0,1,3.08-.28c-.19,1,0,2.34-.62,3a37.75,37.75,0,0,1-5.67,5,6.93,6.93,0,0,1-8.89-.5,3.81,3.81,0,0,0-5-.5,4.86,4.86,0,0,1-6.64-1.85,6.89,6.89,0,0,1-.34-.73C111.51,38.3,111.1,36.57,110.24,34ZM92.57,35.66a15.61,15.61,0,0,0,4.56-11.61c-.2-.61-.92-1.56-1.38-1.57a7.12,7.12,0,0,0-4.08.78C90.31,24.89,91,33.84,92.57,35.66Z"/><path class="cls-1" d="M310.37,44.4a4.07,4.07,0,0,1-5.13-3.5,32.46,32.46,0,0,1,.86-8.57,3,3,0,0,1,2.44-1.58,23.91,23.91,0,0,1,5.73.34,3.14,3.14,0,0,1,2,1.73A9.78,9.78,0,0,1,310.37,44.4Z"/><path class="cls-1" d="M383.6,49c-1.54-.33-3.58-.17-4.4-1.1A9.63,9.63,0,0,1,378.13,43c-.23-.7.41-1.53.58-2.26,1.43-5.29,3.67-6.39,8.69-4.62a3.31,3.31,0,0,1,1.82,1.94A12.44,12.44,0,0,1,383.6,49Z"/></g></g></svg>