<svg xmlns="http://www.w3.org/2000/svg" viewBox="0 0 90.47 58.31"><defs><style>.cls-1{fill:#fff;}</style></defs><title>Asset 2</title><g id="Layer_2" data-name="Layer 2"><g id="Layer_1-2" data-name="Layer 1"><path d="M84.87,0c-.2.07.2,0,0,0-3.09,0,3.09,0,0,0-.23,0,.23,0,0,0Z"/><path d="M65.69,36.63c.66-.48,1.29-1,2-1.44a1.69,1.69,0,0,1,2.16-.13,1.24,1.24,0,0,1,.38,1.87c-.26.44-.61.84-.83,1.31-.45,1-.87,2-1.24,3-.09.23.06.55.09.83a3.21,3.21,0,0,0,.72-.35,6.87,6.87,0,0,0,2-3c.4-1,.79-1.92,1.22-2.86a.72.72,0,0,0-.29-1,3.31,3.31,0,0,1-1-1.14c-.24-.49,0-.76.58-.63l.18,0c1.68.55,1.22.52,1.89-.88.21-.45.37-.93.59-1.37s.49-.65.92-.48,1,.4.93,1a1.84,1.84,0,0,1-.09.53,10.59,10.59,0,0,1-.49,1.16c-.51,1-.47,1.1.6,1.43.78.24,1.55.51,2.33.76.45.15.75.42.65.93A.91.91,0,0,1,78,37a6.61,6.61,0,0,1-1.46-.28c-.63-.18-1.24-.42-1.86-.66a.56.56,0,0,0-.85.35c-.6,1.41-1.25,2.81-1.81,4.24a9.93,9.93,0,0,0-.49,2c-.08.52.21.72.63.43a5,5,0,0,0,1.18-1.16,12.13,12.13,0,0,0,1.9-4c.17-.61.33-.67.89-.44,1,.42,1.24,1,.69,2a13.56,13.56,0,0,0-1.66,4c0,.26-.08.53-.14.94a2.81,2.81,0,0,0,.52-.25,7.49,7.49,0,0,0,1.28-1.49c.67-1.28,1.21-2.63,1.81-4a.52.52,0,0,1,.37-.28A1.17,1.17,0,0,1,80.07,40c-.35.91-.75,1.79-1,2.77.31-.22.6-.48.93-.67a23,23,0,0,1,2.2-1.15A1.5,1.5,0,0,1,84,41.6,1.6,1.6,0,0,1,84,43.42c-.58,1-1.23,2-1.81,3-.21.38-.58.79-.27,1.34a1.11,1.11,0,0,0,.92-.83,7.38,7.38,0,0,1,5.07-4.6c.53-.18,1.46.7,1.27,1.23a1.21,1.21,0,0,1-.74.59,7.54,7.54,0,0,0-3.86,3.24,2.32,2.32,0,0,0-.29,1c-.06.69.29.93,1,.72a1.37,1.37,0,0,0,.36-.19,6.72,6.72,0,0,0,2.92-4.08,1.12,1.12,0,0,1,.61-.72c.18-.08.56.13.76.31a1.37,1.37,0,0,1,.41,1.81c-.91,2.16-1.85,4.32-2.65,6.53a9.19,9.19,0,0,1-3.35,5,4.31,4.31,0,0,1-5.54-1.2,5.38,5.38,0,0,1-.63-1.51,1.3,1.3,0,0,1,.25-.94c.41-.56.93-.49,1.27.12a19.17,19.17,0,0,0,1,1.78,2.07,2.07,0,0,0,3.68,0,2.25,2.25,0,0,0,.35-.62c.52-1.57,1-3.15,1.52-4.73a1.41,1.41,0,0,0,0-.3l-.66.18a2.12,2.12,0,0,1-2.78-1.19c-.13-.26-.23-.51-.56-.31a1.21,1.21,0,0,1-1.55,0A1.62,1.62,0,0,1,80,47.23c.4-1.18.95-2.31,1.45-3.45.09-.22.2-.42.3-.62L81.65,43a8,8,0,0,0-1.31.81c-1,.91-2,1.87-3,2.84-.5.5-1,.43-1.22-.23A2.72,2.72,0,0,1,76,46c-.7,0-1.42.24-1.91,0s-.81-.95-1.25-1.51a2.46,2.46,0,0,1-2.13.48c-.87-.34-1-1.15-1.11-2-.36.22-.63.42-.92.57a1.72,1.72,0,0,1-2.54-1.2,4.79,4.79,0,0,1,.78-3.53l.66-1.22-.14-.12a11,11,0,0,0-1.12.9c-.9.94-1.74,1.93-2.62,2.87-.2.21-.5.47-.74.46a.79.79,0,0,1-.73-.81c0-.14,0-.28-.06-.33-.66.1-1.38.41-1.92.22s-.92-.88-1.46-1.43c-.51.22-1.13.75-2,.41s-1-1-1-1.91l-1.48.74A2.22,2.22,0,0,1,51,36.32a5.62,5.62,0,0,1,.92-2.63l.6-.95c-.49.09-.82.17-1.17.21-1,.12-2.09.21-3.14.33a1,1,0,0,1-1.09-.64c-.07-.14-.16-.26-.29-.48A4.16,4.16,0,0,0,46,33.87c-.51,1.87-1,3.75-1.48,5.61-.2.74-.49.89-1.24.73s-1.1-.52-.92-1.25c.48-1.85.94-3.71,1.55-5.52a101.63,101.63,0,0,1,4.49-10.91.91.91,0,0,1,1.7-.14c.08.11,0,.37,0,.53-.89,2.36-1.81,4.72-2.7,7.09-.25.65-.18.73.52.74a16.13,16.13,0,0,0,8.2-1.84c1.2-.66,2.68-2.39,2.36-4.05a3.65,3.65,0,0,0-1.18-2A8.38,8.38,0,0,0,52,20.71a19.67,19.67,0,0,0-5.78.31A1.18,1.18,0,0,1,45,19.77a.5.5,0,0,1,.31-.29,15.84,15.84,0,0,1,7.27-.63,9.85,9.85,0,0,1,4.54,1.7,7.19,7.19,0,0,1,3,4.45,4.36,4.36,0,0,1-.92,3.54c-.33.44-.73.85-1,1.31a.68.68,0,0,0,0,.6c.47.73.3,1.19-.54,1.41A6.65,6.65,0,0,0,52.82,36a2,2,0,0,0-.13.46c-.11.94.42,1.34,1.27.92a5.25,5.25,0,0,0,1.39-.92,6.84,6.84,0,0,0,1.95-3.17c.19-.78.39-.9,1.06-.67s1,.76.75,1.41-.61,1.16-.87,1.77a10.41,10.41,0,0,0-.55,1.57,1.6,1.6,0,0,0,.12.66c.21-.08.5-.1.62-.26a14,14,0,0,0,1.35-2.08c.56-1.19,1-2.43,1.48-3.66.22-.57.6-.74,1.12-.41a3,3,0,0,1,.92.84,1,1,0,0,1,0,.82c-.34.69-.74,1.37-1.12,2a6.53,6.53,0,0,0-.94,3.06,2.19,2.19,0,0,0,.17.59c.18-.07.41-.09.51-.22A10.47,10.47,0,0,0,63.15,37c.59-1.24,1.08-2.52,1.58-3.8.16-.38.36-.54.78-.43,1.08.29,1.37.91.88,1.93-.3.62-.56,1.26-.84,1.89Z"/><path d="M22.36,17.67c.23-.25.47-.5.69-.76a1.51,1.51,0,0,1,2.32.29,1.21,1.21,0,0,1-.2.87c-.5.86-1.12,1.65-1.55,2.55a12.33,12.33,0,0,0-.78,2.48c-.05.23.17.52.27.79.28-.11.69-.15.82-.35a22.23,22.23,0,0,0,1-2.07c.51-1.06,1-2.14,1.51-3.19a1,1,0,0,1,1.36-.35c.53.26.64.61.38,1.19-.83,1.81-1.72,3.6-2.46,5.45C25.19,26,24.84,27.5,24.35,29a5.91,5.91,0,0,1-3.39,4,4.39,4.39,0,0,1-5.52-2.38,1.46,1.46,0,0,1,.08-1.59c.39-.47.75-.46,1.1,0s.86,1.29,1.29,1.94A2.47,2.47,0,0,0,22,30.6a20.12,20.12,0,0,0,1.64-5.22c-.45,0-.78,0-1.11,0a1.67,1.67,0,0,1-1.68-1.8,25.74,25.74,0,0,1,.63-3,5.83,5.83,0,0,1,.28-.76l-.17-.08c-.12.25-.24.49-.37.73a5.42,5.42,0,0,1-2.91,2.93,2.94,2.94,0,0,1-3.77-1.94,7.1,7.1,0,0,1-.06-1.6,1.46,1.46,0,0,0-.05-.61,1.79,1.79,0,0,0-.22.38,36.38,36.38,0,0,1-1.59,4.11,8.72,8.72,0,0,1-4.93,4.4,5.83,5.83,0,0,1-6.35-2.05A8.1,8.1,0,0,1,.07,20.28c.32-3.49,2.05-6.32,4.09-9A.91.91,0,0,1,5.52,11l.3.2c1.07.7,1.16,1.14.26,2.08a13.7,13.7,0,0,0-3.65,6.29,9.66,9.66,0,0,0,.08,5.09,3.58,3.58,0,0,0,4.88,2.1,6.7,6.7,0,0,0,3-2.84,25.8,25.8,0,0,0,2.85-7.59c.72-3,1.43-5.93,2.17-8.89.27-1.12.63-2.22.91-3.34.13-.49.4-.67.87-.56A14.83,14.83,0,0,1,18.65,4c.33.13.4.41.25.75a71.65,71.65,0,0,0-3.3,10.74c-.22.8-.5,1.59-.75,2.39a.66.66,0,0,0,0,.42,15.36,15.36,0,0,1,1.08-1.67A22.85,22.85,0,0,1,18,14.41c.65-.58,1.22-.46,1.82.17a1,1,0,0,0,.62.33,1.65,1.65,0,0,1,1.72,1.73c0,.31,0,.63,0,.94Zm-3.92-.52a6.4,6.4,0,0,0-1.77,3,2.65,2.65,0,0,0,0,1.22.92.92,0,0,0,1.56.55,3.81,3.81,0,0,0,1.51-2,.6.6,0,0,0-.1-.52A2.42,2.42,0,0,1,18.44,17.15Z"/><path d="M36,25.29a4.09,4.09,0,0,0,.61-.72c1.44-2.71,2.86-5.43,4.3-8.14a6.58,6.58,0,0,1,.4-.67A1,1,0,0,1,43,15.49a.78.78,0,0,1,.29,1.18c-.69,1-1.41,2.08-2.08,3.15-.8,1.27-1.57,2.57-2.43,4,.36,0,.56.09.76.09.68,0,1.36-.07,2,0s1.16.48,1,1.13c-.06.34-.21.52-.6.49-.55,0-1.11,0-1.67,0-.76,0-.8.1-.74.85a42.43,42.43,0,0,1,.22,4.36,9.39,9.39,0,0,1-2,5.77,3.94,3.94,0,0,1-2.88,1.74,1.79,1.79,0,0,1-2-1.94,15.63,15.63,0,0,1,1.21-5.64c.36-1,.8-2,1.19-3.06.09-.24.15-.49.23-.74l-.13-.15a2.44,2.44,0,0,0-.54.33c-.41.46-.76,1-1.2,1.41a2.88,2.88,0,0,1-4.7-.85A3.64,3.64,0,0,1,29,24.62a10.93,10.93,0,0,1,3.32-4.4,1.36,1.36,0,0,1,2.24.69.78.78,0,0,0,.45.38,1.66,1.66,0,0,1,1.17,1.95l-.33,1.93Zm1.76.88c-.19.25-.27.33-.32.42a27.07,27.07,0,0,0-2.43,7,10,10,0,0,0-.22,2.19c0,.73.55,1,1.11.61A4.4,4.4,0,0,0,37.13,35a12.05,12.05,0,0,0,1-6.6C38.05,27.69,37.92,27,37.8,26.17Zm-5-3.26a5.09,5.09,0,0,0-1.7,2.52,4.56,4.56,0,0,0-.27,1.68.92.92,0,0,0,1.41.82,5.67,5.67,0,0,0,1.3-1.41c.06-.07-.06-.39-.18-.5a2.64,2.64,0,0,1-.64-2.5C32.69,23.34,32.72,23.17,32.75,22.91Zm1.89.48A1.14,1.14,0,0,0,34.27,25Z"/><path d="M26.32,12.24c-.46.34-.83.58-1.17.87-.9.77-1.49.59-1.73-.6-.13.05-.25.09-.37.15a1.2,1.2,0,0,1-1.86-1,12,12,0,0,1,.5-2.56c.11-.37.17-.59-.16-.88-.14-.12-.15-.47-.11-.7,0-.07.37-.07.56-.14a1.51,1.51,0,0,0,.55-.28,2.6,2.6,0,0,0,.31-.57A.83.83,0,0,1,24,6.11c.46.25.28.62.16,1s-.55.65,0,1c.37.22.68.2.88-.24L26,5.76c.15-.34.19-.79.75-.63a1,1,0,0,1,.78,1.22,7.69,7.69,0,0,1-.45.91l-1.95,4,.16.14.54-.27a8.28,8.28,0,0,1,1.43-.71.94.94,0,0,1,.84.23,1,1,0,0,1,.07.85c-.2.6-.48,1.16-.75,1.77.64.22.85-.15,1.06-.52a3.2,3.2,0,0,1,2.22-1.66,1.55,1.55,0,0,1,.29,0,1.3,1.3,0,0,1,1.42.85,1.26,1.26,0,0,1-1,1.33c-.47.16-1,.23-1.44.4-.19.08-.32.32-.48.49.2.14.39.41.58.4.41,0,.8-.21,1.21-.27a1.79,1.79,0,0,1,.62.14c-.1.18-.16.45-.31.53a7.74,7.74,0,0,1-1.43.6,1.44,1.44,0,0,1-1.71-.66.79.79,0,0,0-.94-.41,1,1,0,0,1-1.2-.94C26.29,13.16,26.32,12.8,26.32,12.24Zm-3.57-.79A3.19,3.19,0,0,0,24.39,9.5c0-.13-.08-.36-.17-.39A1.49,1.49,0,0,0,23.37,9C23,9.23,22.56,11,22.75,11.45Z"/><path d="M64.85,26.94a.82.82,0,0,1-.78-1,6.55,6.55,0,0,1,.72-1.6.63.63,0,0,1,.58-.15,4.93,4.93,0,0,1,1.1.43.63.63,0,0,1,.28.46A2,2,0,0,1,64.85,26.94Z"/><path d="M78.9,32.46c-.28-.16-.69-.26-.79-.49a1.93,1.93,0,0,1,.1-1c0-.15.18-.27.26-.4.62-.93,1.13-1,2-.34a.67.67,0,0,1,.23.49A2.54,2.54,0,0,1,78.9,32.46Z"/><path class="cls-1" d="M18.44,17.15a2.42,2.42,0,0,0,1.22,2.22.6.6,0,0,1,.1.52,3.81,3.81,0,0,1-1.51,2,.92.92,0,0,1-1.56-.55,2.65,2.65,0,0,1,0-1.22A6.4,6.4,0,0,1,18.44,17.15Z"/><path class="cls-1" d="M37.8,26.17c.12.85.25,1.52.31,2.2a12.05,12.05,0,0,1-1,6.6,4.4,4.4,0,0,1-1.19,1.46c-.56.44-1.13.12-1.11-.61a10,10,0,0,1,.22-2.19,27.07,27.07,0,0,1,2.43-7C37.53,26.5,37.61,26.42,37.8,26.17Z"/><path class="cls-1" d="M32.75,22.91c0,.26-.06.43-.08.61a2.64,2.64,0,0,0,.64,2.5c.12.11.24.43.18.5a5.67,5.67,0,0,1-1.3,1.41.92.92,0,0,1-1.41-.82,4.56,4.56,0,0,1,.27-1.68A5.09,5.09,0,0,1,32.75,22.91Z"/><path class="cls-1" d="M34.64,23.39,34.27,25A1.14,1.14,0,0,1,34.64,23.39Z"/><path class="cls-1" d="M22.75,11.45c-.19-.49.2-2.22.62-2.41a1.49,1.49,0,0,1,.85.07c.09,0,.17.26.17.39A3.19,3.19,0,0,1,22.75,11.45Z"/></g></g></svg>